%
M48
M72
T01C0.0130
T02C0.0320
T03C0.0360
T04C0.0400
T05C0.0433
T06C0.0440
T07C0.0551
T08C0.0650
T09C0.1102
T10C0.1181
%
T01
X11000Y9000
X15500Y9000
X14500Y13250
X14750Y14250
X13000Y15750
X12750Y16750
X12500Y17750
X12250Y18750
X12000Y19750
X11750Y20750
X11500Y22750
X11250Y25750
X11000Y26750
X9250Y28250
X9250Y28750
X13250Y30250
X13500Y30750
X13500Y31250
X14000Y31500
X14000Y29750
X14000Y27750
X15000Y26750
X21000Y21750
X20000Y20750
X19500Y19750
X17750Y19750
X18000Y18750
X17500Y20750
X21000Y17750
X20000Y16750
X19500Y16250
X18500Y15250
X24750Y20750
X26250Y20625
X27500Y21250
X28750Y20750
X29750Y20250
X29250Y19250
X28500Y18250
X29000Y16750
X29500Y17000
X30000Y17250
X30000Y16250
X29000Y15750
X28750Y16250
X28750Y15250
X29000Y14250
X29750Y13750
X29250Y12750
X29000Y12250
X28500Y11750
X28750Y11250
X29500Y10750
X30000Y10250
X30500Y10250
X30750Y10750
X31000Y11250
X32250Y11750
X32750Y12250
X32500Y12750
X33000Y13750
X33750Y14750
X34250Y15750
X35500Y14750
X34500Y17750
X34750Y18250
X34000Y18750
X33750Y19750
X33500Y20250
X33250Y21750
X34750Y21250
X35000Y20750
X35250Y22250
X36125Y25500
X38750Y23750
X42000Y24250
X42750Y23250
X42250Y22750
X42500Y22250
X43500Y23750
X45875Y26250
X46750Y25125
X49000Y24250
X49250Y25125
X50250Y25750
X50000Y26000
X49750Y26250
X49500Y26500
X49250Y26750
X50500Y27000
X50750Y27250
X51000Y27500
X48500Y29750
X48250Y30250
X48000Y30750
X47750Y31250
X47500Y31750
X47250Y32250
X47000Y32750
X46000Y33750
X45500Y34250
X44500Y36250
X42500Y36250
X41750Y36750
X42750Y37250
X43000Y38250
X43250Y39250
X44000Y42250
X43750Y42750
X44250Y43000
X43500Y44250
X44000Y44625
X45500Y45000
X46000Y45250
X46000Y43625
X47875Y44500
X49000Y44250
X49250Y45500
X48750Y45750
X50250Y45000
X51500Y45625
X50000Y47000
X49750Y47250
X49500Y47500
X51000Y48750
X50750Y49000
X50500Y49250
X50500Y51250
X50000Y53250
X50500Y54250
X52500Y53250
X52500Y50750
X55000Y50750
X56250Y49500
X57250Y50250
X58000Y49500
X58250Y48250
X58500Y47500
X58750Y47250
X59000Y47000
X58500Y46500
X59000Y46250
X59250Y46000
X57750Y46750
X59250Y48000
X59500Y47750
X59750Y48250
X59500Y49750
X59250Y50750
X60000Y51250
X61500Y50750
X62250Y51750
X63000Y50750
X64750Y51750
X65500Y51000
X65250Y50250
X67000Y50250
X68000Y49250
X67000Y47500
X68000Y46500
X68000Y45250
X68750Y44250
X69250Y43750
X69250Y45625
X70000Y47750
X71500Y48500
X71750Y48750
X71500Y51250
X72000Y51250
X71750Y52250
X72250Y52250
X71500Y53250
X72250Y54000
X72000Y54250
X71500Y54750
X69750Y54500
X69500Y56000
X66750Y57750
X66750Y58750
X66750Y59750
X66750Y60750
X66750Y61750
X66750Y62750
X66750Y63750
X66750Y64750
X66750Y65750
X62500Y66000
X60500Y64750
X60250Y63750
X59500Y64250
X59000Y64750
X58500Y64250
X58000Y64750
X57500Y64250
X58000Y63750
X57000Y63750
X56000Y63750
X57500Y65250
X58000Y65750
X58500Y65250
X59000Y65750
X59500Y65250
X60000Y61750
X59750Y60750
X59250Y60250
X59500Y59750
X60250Y57250
X58750Y55750
X58000Y55250
X57000Y55000
X56000Y56250
X55500Y55750
X55000Y56500
X53250Y55750
X52250Y56500
X52250Y57250
X47500Y56250
X47000Y56750
X46000Y56750
X45750Y57250
X46000Y55750
X44250Y55250
X44500Y54250
X44750Y53750
X44500Y52750
X42750Y53750
X43000Y54250
X42250Y55250
X42250Y57250
X42750Y57250
X43000Y58250
X44625Y58500
X39750Y55250
X39250Y55750
X38750Y57125
X39250Y57750
X39250Y58250
X39250Y60188
X38313Y60188
X36500Y60188
X36500Y61125
X35250Y60750
X34125Y59750
X35750Y58375
X34750Y57750
X35000Y56250
X34000Y56250
X34250Y54750
X34750Y54750
X35250Y54250
X36000Y53750
X35375Y52875
X35375Y52500
X35375Y52125
X33375Y52125
X33375Y52500
X33375Y52875
X30750Y54250
X30750Y55250
X30750Y56250
X29250Y56250
X28625Y56250
X29250Y55250
X29250Y54250
X28625Y53250
X26875Y53875
X27125Y54375
X27125Y55000
X26125Y53875
X24375Y53250
X24125Y53875
X22750Y53500
X21750Y54250
X22000Y52250
X23500Y50250
X24500Y50750
X26500Y51250
X29750Y51750
X32000Y48000
X31000Y47750
X30500Y47500
X30000Y47250
X29500Y47000
X29000Y46750
X28500Y46875
X28000Y46500
X27500Y46250
X26500Y46000
X26000Y45750
X25625Y46000
X25250Y46000
X24875Y46000
X24500Y45750
X24000Y45750
X23500Y45750
X22750Y44750
X24375Y43250
X29000Y43250
X31000Y43750
X33250Y41750
X33000Y40750
X33500Y40250
X33750Y39750
X32750Y39750
X32500Y38750
X32000Y37750
X32250Y36750
X34250Y36750
X34250Y35750
X35500Y34750
X32750Y32750
X32250Y32250
X33250Y31750
X32000Y31250
X33000Y30750
X30750Y30250
X30500Y29750
X27000Y31000
X26500Y29750
X24250Y31000
X22750Y29750
X21250Y29250
X21500Y28250
X21750Y27250
X22000Y26250
X25500Y23750
X26000Y23750
X26500Y24250
X25500Y22750
X26000Y22250
X27250Y19250
X27000Y18750
X25750Y17250
X26000Y16250
X26250Y15250
X27000Y15750
X27500Y15250
X26500Y14250
X26750Y13250
X27000Y12250
X27250Y11250
X27500Y10250
X30250Y9750
X38250Y17000
X38000Y18750
X41500Y18250
X41250Y17250
X41000Y16250
X40750Y15250
X40500Y14250
X40250Y13250
X43250Y14750
X43000Y16750
X41750Y19250
X48750Y14750
X51750Y22000
X53750Y22000
X54250Y23500
X54750Y23750
X53500Y24250
X54250Y25250
X58750Y23250
X59000Y22750
X59000Y22250
X59250Y21750
X58500Y21250
X61250Y21750
X61500Y20250
X62250Y18750
X63500Y19250
X63250Y19750
X63250Y20750
X63750Y21750
X64500Y18750
X64750Y17750
X62500Y17750
X62750Y15750
X63000Y14750
X64250Y14000
X64000Y13250
X63500Y12500
X62000Y12750
X61500Y13250
X61125Y14000
X59000Y13750
X58250Y14250
X58500Y14750
X57000Y13750
X57000Y12750
X58750Y12750
X60750Y10750
X61125Y9750
X61500Y8750
X63500Y8000
X66500Y7500
X66750Y7000
X70250Y9125
X71250Y10250
X70750Y11250
X70250Y12750
X70750Y13000
X71250Y13000
X71750Y13000
X73000Y14250
X73000Y14750
X72375Y15000
X71250Y15500
X70750Y15250
X69750Y15500
X69500Y15250
X68750Y15250
X68000Y14750
X67750Y15750
X68500Y16750
X68000Y17750
X67500Y17250
X68250Y18750
X69000Y19750
X68500Y21250
X68750Y22750
X68000Y22750
X68000Y24250
X67250Y25250
X66500Y24250
X65000Y25750
X64750Y26000
X65000Y26250
X64500Y26250
X64250Y26500
X64000Y26750
X63750Y27500
X65500Y28750
X64750Y31250
X63500Y31750
X63250Y32750
X62750Y33875
X62500Y34750
X61750Y35750
X61000Y36250
X62250Y36750
X62000Y37750
X61250Y39500
X59500Y39750
X60250Y41000
X60500Y41500
X60000Y41750
X61250Y42500
X61500Y42250
X61000Y43250
X59750Y44250
X58000Y41250
X56750Y40750
X57250Y38750
X57250Y38250
X57750Y37250
X57500Y36750
X57250Y36250
X57000Y35750
X57000Y34750
X57750Y34750
X58250Y34250
X58000Y33750
X57000Y33750
X57000Y32750
X57000Y31750
X58000Y31750
X57750Y30750
X57500Y30250
X57000Y30750
X58500Y30750
X59250Y31750
X59500Y33250
X60500Y33000
X60750Y33500
X61250Y32250
X62000Y31250
X61500Y29750
X61750Y29250
X59250Y28000
X65500Y33750
X68000Y33750
X68500Y33750
X68500Y32750
X69250Y31750
X68000Y30750
X71750Y31750
X72000Y32250
X72250Y32750
X72250Y33250
X72250Y34750
X72750Y35750
X72500Y36250
X69750Y35750
X69250Y35750
X68500Y35250
X67500Y35250
X69500Y36750
X69250Y37000
X69250Y37750
X69250Y39250
X68750Y41000
X68500Y41250
X69250Y42000
X67750Y42250
X67250Y41750
X66750Y41500
X65500Y40750
X64250Y40000
X63500Y39250
X63000Y39750
X64750Y38750
X64250Y42000
X63500Y42750
X63500Y46000
X64500Y46250
X65250Y46500
X65500Y48000
X63250Y47750
X62750Y48750
X62000Y52750
X62500Y53750
X62000Y54750
X63000Y55000
X63250Y56000
X63250Y57750
X63000Y58750
X62500Y61500
X58000Y56250
X58750Y53750
X55000Y49000
X53750Y48500
X56000Y45250
X53250Y44250
X51875Y42750
X51500Y42250
X53250Y42250
X47875Y40000
X48750Y34750
X53750Y34250
X59000Y38750
X48000Y49500
X47500Y51250
X39750Y50250
X39500Y50750
X39250Y51250
X39000Y51750
X38750Y52250
X38500Y52750
X38250Y53250
X38000Y54250
X40000Y53750
X33500Y48750
X36500Y44500
X38500Y43750
X35750Y41750
X35250Y42250
X35000Y41750
X34750Y41250
X35000Y40750
X34250Y42750
X34750Y43750
X30500Y39750
X30750Y38750
X30000Y38250
X29250Y37250
X28750Y36250
X28500Y35750
X29000Y34750
X29750Y35250
X30250Y34250
X29500Y33750
X32500Y33750
X34500Y37750
X34000Y38750
X39500Y33750
X39750Y32750
X40000Y32250
X40250Y31750
X40500Y31250
X40750Y30750
X41000Y30250
X41250Y29750
X41500Y33250
X41750Y34250
X42000Y35250
X42000Y43750
X27000Y58250
X26000Y57500
X24375Y56250
X23875Y55125
X22750Y58375
X26000Y61250
X27000Y61500
X28000Y61750
X28500Y62000
X29500Y62250
X30000Y62500
X30500Y62750
X31000Y63000
X31500Y63250
X31188Y63750
X30875Y64750
X29188Y64250
X28875Y64750
X28000Y64750
X28000Y63750
X27000Y59750
X18500Y53750
X20125Y48375
X20000Y46250
X25250Y48000
X25625Y48000
X18500Y37250
X21500Y36750
X21250Y35750
X21500Y33750
X22250Y33250
X21250Y32750
X13750Y34750
X14000Y35750
X14250Y36750
X10750Y33750
X10500Y43750
X8500Y44750
X7750Y44750
X10000Y46250
X7750Y48250
X9500Y54750
X11750Y54750
X9125Y59000
X9125Y59500
X12500Y62750
X12750Y62500
X13000Y62250
X13250Y62000
X13500Y61750
X13750Y61500
X12250Y63000
X12000Y63250
X36313Y64500
X39000Y64313
X40938Y63313
X44313Y63250
X45000Y63938
X44500Y64625
X44500Y65500
X45000Y66250
X46000Y66250
X46000Y63938
X50000Y64250
X51000Y64250
X52000Y64250
X52000Y65250
X52000Y66250
X51000Y66250
X50000Y66250
X50000Y65250
X55500Y66000
X71500Y46250
X72500Y46000
X72875Y39625
X72750Y31250
X72500Y30750
X71750Y29250
X72000Y28750
X72250Y28250
X71250Y26000
X72875Y25375
X70000Y24750
X72000Y20250
X72000Y19375
X72500Y19375
X71500Y19375
X71250Y18250
X72750Y18250
X72375Y16750
X72000Y16750
X71500Y16750
X69000Y14250
X65000Y13750
X54500Y7000
X30000Y22250
T02
X31500Y22250
X31500Y21250
X31500Y20250
X31500Y19250
X31500Y18250
X31500Y17250
X31500Y16250
X31500Y15250
X31500Y14250
X31500Y13250
X31500Y12250
X31500Y11250
X31500Y10250
X31500Y9250
X28000Y10250
X28000Y11250
X28000Y12250
X28000Y13250
X28000Y14250
X28000Y15250
X28000Y16250
X28000Y17250
X28000Y18250
X28000Y19250
X25000Y19250
X25000Y18250
X25000Y17250
X25000Y16250
X25000Y15250
X25000Y14250
X25000Y13250
X25000Y12250
X25000Y11250
X25000Y10250
X23500Y10250
X23500Y11250
X23500Y12250
X23500Y13250
X23500Y14250
X23500Y15250
X23500Y16250
X23500Y17250
X23500Y18250
X23500Y19250
X23500Y22250
X23500Y23250
X23500Y24250
X23500Y25250
X23500Y26250
X23500Y27250
X23500Y28250
X23500Y29250
X23500Y30250
X23500Y31250
X25000Y31250
X25000Y30250
X25000Y29250
X25000Y28250
X25000Y27250
X25000Y26250
X25000Y25250
X25000Y24250
X28000Y24250
X28000Y25250
X28000Y26250
X28000Y27250
X28000Y28250
X28000Y29250
X28000Y30250
X28000Y31250
X31500Y31250
X31500Y30250
X31500Y29250
X31500Y32250
X31500Y33250
X31500Y34250
X31500Y35250
X31500Y36250
X31500Y37250
X31500Y38250
X31500Y39250
X31500Y40250
X31500Y41250
X31500Y42250
X31500Y43250
X31500Y44250
X28000Y43250
X28000Y42250
X28000Y41250
X28000Y40250
X28000Y39250
X28000Y38250
X28000Y37250
X28000Y36250
X28000Y35250
X28000Y34250
X25000Y34250
X25000Y35250
X25000Y36250
X25000Y37250
X25000Y38250
X25000Y39250
X25000Y40250
X25000Y41250
X25000Y42250
X25000Y43250
X23500Y43250
X23500Y42250
X23500Y41250
X23500Y40250
X23500Y39250
X23500Y38250
X23500Y37250
X23500Y36250
X23500Y35250
X23500Y34250
X20500Y34250
X20500Y35250
X20500Y36250
X20500Y37250
X20500Y38250
X20500Y39250
X20500Y40250
X20500Y41250
X20500Y42250
X20500Y43250
X19000Y42750
X19000Y41750
X19000Y40750
X19000Y39750
X19000Y38750
X19000Y37750
X19000Y36750
X19000Y35750
X19000Y34750
X19000Y33750
X19000Y32750
X19000Y31750
X19000Y30750
X19000Y29750
X19000Y28750
X19000Y27750
X19000Y26750
X19000Y25750
X19000Y24750
X19000Y23750
X19000Y22750
X19000Y21750
X19000Y20750
X19000Y19750
X19000Y18750
X19000Y17750
X19000Y16750
X19000Y15750
X19000Y14750
X19000Y13750
X19000Y12750
X19000Y11750
X20500Y11250
X20500Y12250
X20500Y13250
X20500Y14250
X20500Y15250
X20500Y16250
X20500Y17250
X20500Y18250
X20500Y19250
X20500Y22250
X20500Y23250
X20500Y24250
X20500Y25250
X20500Y26250
X20500Y27250
X20500Y28250
X20500Y29250
X20500Y30250
X20500Y31250
X10000Y30750
X10000Y29750
X10000Y28750
X10000Y27750
X10000Y26750
X10000Y25750
X10000Y24750
X10000Y23750
X10000Y22750
X10000Y21750
X10000Y20750
X10000Y19750
X10000Y18750
X10000Y17750
X10000Y16750
X10000Y15750
X10000Y14750
X10000Y13750
X10000Y12750
X10000Y11750
X20500Y10250
X31500Y23250
X31500Y24250
X37500Y24250
X37500Y23250
X37500Y22250
X37500Y21250
X37500Y20250
X37500Y19250
X37500Y18250
X37500Y17250
X37500Y16250
X37500Y15250
X37500Y14250
X37500Y13250
X37500Y12250
X37500Y11250
X37500Y10250
X37500Y9250
X39000Y9250
X39000Y10250
X39000Y11250
X39000Y12250
X39000Y13250
X39000Y14250
X39000Y15250
X39000Y16250
X39000Y17250
X39000Y18250
X39000Y19250
X39000Y20250
X39000Y21250
X39000Y22250
X39000Y23250
X39000Y24250
X39000Y29250
X39000Y30250
X39000Y31250
X39000Y32250
X39000Y33250
X39000Y34250
X39000Y35250
X39000Y36250
X39000Y37250
X39000Y38250
X39000Y39250
X39000Y40250
X39000Y41250
X39000Y42250
X39000Y43250
X39000Y44250
X37500Y44250
X37500Y43250
X37500Y42250
X37500Y41250
X37500Y40250
X37500Y39250
X37500Y38250
X37500Y37250
X37500Y36250
X37500Y35250
X37500Y34250
X37500Y33250
X37500Y32250
X37500Y31250
X37500Y30250
X37500Y29250
X45000Y29250
X45000Y30250
X45000Y31250
X45000Y32250
X45000Y33250
X45000Y34250
X45000Y35250
X45000Y36250
X45000Y37250
X45000Y38250
X45000Y39250
X45000Y40250
X45000Y41250
X45000Y42250
X45000Y43250
X45000Y44250
X46500Y44250
X46500Y43250
X46500Y42250
X46500Y41250
X46500Y40250
X46500Y39250
X46500Y38250
X46500Y37250
X46500Y36250
X46500Y35250
X46500Y34250
X46500Y33250
X46500Y32250
X46500Y31250
X46500Y30250
X46500Y29250
X46500Y24250
X46500Y23250
X46500Y22250
X46500Y21250
X46500Y20250
X46500Y19250
X46500Y18250
X46500Y17250
X46500Y16250
X46500Y15250
X46500Y14250
X46500Y13250
X46500Y12250
X46500Y11250
X46500Y10250
X46500Y9250
X45000Y9250
X45000Y10250
X45000Y11250
X45000Y12250
X45000Y13250
X45000Y14250
X45000Y15250
X45000Y16250
X45000Y17250
X45000Y18250
X45000Y19250
X45000Y20250
X45000Y21250
X45000Y22250
X45000Y23250
X45000Y24250
X52500Y24250
X52500Y23250
X52500Y22250
X52500Y21250
X52500Y20250
X52500Y19250
X52500Y18250
X52500Y17250
X52500Y16250
X52500Y15250
X52500Y14250
X52500Y13250
X52500Y12250
X52500Y11250
X52500Y10250
X52500Y9250
X60000Y8750
X60000Y9750
X60000Y10750
X60000Y11750
X60000Y12750
X60000Y13750
X60000Y14750
X60000Y15750
X60000Y16750
X60000Y17750
X60000Y18750
X60000Y19750
X66000Y19750
X66000Y18750
X66000Y17750
X66000Y16750
X66000Y15750
X66000Y14750
X66000Y13750
X66000Y12750
X66000Y11750
X66000Y10750
X66000Y9750
X66000Y8750
X69500Y9750
X69500Y10750
X69500Y11750
X69500Y12750
X72500Y12750
X72500Y11750
X72500Y10750
X72500Y9750
X73500Y16250
X73500Y17250
X73500Y18250
X73500Y19250
X73500Y20250
X73500Y21250
X73500Y22250
X73500Y23250
X70500Y23250
X70500Y22250
X70500Y21250
X70500Y20250
X70500Y19250
X70500Y18250
X70500Y17250
X70500Y16250
X70500Y26750
X70500Y27750
X70500Y28750
X70500Y29750
X70500Y30750
X70500Y31750
X70500Y32750
X70500Y33750
X70500Y34750
X70500Y35750
X70500Y36750
X70500Y37750
X73500Y37750
X73500Y36750
X73500Y35750
X73500Y34750
X73500Y33750
X73500Y32750
X73500Y31750
X73500Y30750
X73500Y29750
X73500Y28750
X73500Y27750
X73500Y26750
X66000Y28750
X66000Y29750
X66000Y30750
X66000Y31750
X66000Y32750
X66000Y33750
X66000Y34750
X66000Y35750
X66000Y36750
X66000Y37750
X66000Y38750
X66000Y39750
X70500Y41250
X70500Y44250
X73500Y44250
X73500Y41250
X73500Y47250
X73500Y49250
X73500Y51250
X73500Y52250
X73500Y53250
X70500Y53250
X70500Y52250
X70500Y51250
X70500Y50250
X70500Y49250
X69000Y49250
X69000Y51250
X69000Y52250
X69000Y53250
X66000Y53250
X66000Y52250
X66000Y51250
X66000Y50250
X66000Y49250
X66000Y47250
X64000Y47250
X64000Y48250
X64000Y49250
X64000Y50250
X64000Y51250
X64000Y52250
X64000Y53250
X64000Y54250
X64000Y56750
X64000Y57750
X64000Y58750
X64000Y59750
X64000Y60750
X64000Y61750
X64000Y62750
X64000Y63750
X64000Y64750
X64000Y65750
X66000Y65750
X66000Y64750
X66000Y63750
X66000Y62750
X66000Y61750
X66000Y60750
X66000Y59750
X66000Y58750
X66000Y57750
X66000Y56750
X69000Y56750
X69000Y57750
X69000Y58750
X69000Y59750
X69000Y60750
X69000Y61750
X69000Y62750
X69000Y63750
X69000Y64750
X69000Y65750
X61000Y65750
X61000Y64750
X61000Y63750
X61000Y62750
X61000Y61750
X61000Y60750
X61000Y59750
X61000Y58750
X61000Y57750
X61000Y56750
X61000Y54250
X61000Y53250
X61000Y52250
X61000Y51250
X61000Y50250
X61000Y49250
X61000Y48250
X61000Y47250
X60000Y39750
X60000Y38750
X60000Y37750
X60000Y36750
X60000Y35750
X60000Y34750
X60000Y33750
X60000Y32750
X60000Y31750
X60000Y30750
X60000Y29750
X60000Y28750
X52500Y29250
X52500Y30250
X52500Y31250
X52500Y32250
X52500Y33250
X52500Y34250
X52500Y35250
X52500Y36250
X52500Y37250
X52500Y38250
X52500Y39250
X52500Y40250
X52500Y41250
X52500Y42250
X52500Y43250
X52500Y44250
X51500Y50250
X51500Y51250
X51500Y52250
X51500Y53250
X51500Y54250
X51500Y55250
X51500Y56250
X51500Y57250
X51500Y58250
X51500Y59250
X48500Y59250
X48500Y58250
X48500Y57250
X48500Y56250
X48500Y55250
X48500Y54250
X48500Y53250
X48500Y52250
X48500Y51250
X48500Y50250
X46500Y50250
X46500Y51250
X46500Y52250
X46500Y53250
X46500Y54250
X46500Y55250
X46500Y56250
X46500Y57250
X43500Y57250
X43500Y56250
X43500Y55250
X43500Y54250
X43500Y53250
X43500Y52250
X43500Y51250
X43500Y50250
X40500Y50250
X40500Y51250
X40500Y52250
X40500Y53250
X40500Y54250
X40500Y55250
X40500Y56250
X40500Y57250
X40500Y58250
X40500Y59250
X37500Y59250
X37500Y58250
X37500Y57250
X37500Y56250
X37500Y55250
X37500Y54250
X37500Y53250
X37500Y52250
X37500Y51250
X37500Y50250
X32500Y49750
X31500Y49750
X31500Y48750
X30500Y48750
X30500Y49750
X29500Y49750
X29500Y48750
X28500Y48750
X28500Y49750
X27500Y49750
X27500Y48750
X26500Y48750
X26500Y49750
X25500Y49750
X25500Y48750
X24500Y48750
X24500Y49750
X23500Y49750
X23500Y48750
X22500Y48750
X22500Y49750
X21500Y49750
X21500Y48750
X20500Y49750
X20500Y50750
X20500Y51750
X21500Y51750
X21500Y50750
X21500Y52750
X21500Y53750
X20500Y53750
X20500Y52750
X20500Y54750
X20500Y55750
X21500Y55750
X21500Y54750
X21500Y56750
X21500Y57750
X21500Y58750
X20500Y58750
X20500Y57750
X20500Y56750
X20500Y59750
X21500Y59750
X21500Y60750
X22500Y60750
X22500Y59750
X23500Y59750
X23500Y60750
X24500Y60750
X24500Y59750
X25500Y59750
X25500Y60750
X26500Y60750
X26500Y59750
X27500Y59750
X27500Y60750
X28500Y60750
X28500Y59750
X29500Y59750
X29500Y60750
X30500Y60750
X30500Y59750
X31500Y59750
X31500Y60750
X32500Y59750
X32500Y58750
X32500Y57750
X32500Y56750
X31500Y56750
X31500Y57750
X31500Y58750
X31500Y55750
X31500Y54750
X32500Y54750
X32500Y55750
X32500Y53750
X32500Y52750
X31500Y52750
X31500Y53750
X31500Y51750
X31500Y50750
X32500Y50750
X32500Y51750
X37500Y62250
X38500Y62250
X39500Y62250
X40500Y62250
X40500Y65250
X39500Y65250
X38500Y65250
X37500Y65250
X10000Y42750
X10000Y41750
X10000Y40750
X10000Y39750
X10000Y38750
X10000Y37750
X10000Y36750
X10000Y35750
X10000Y34750
X10000Y33750
X10000Y32750
X10000Y31750
X8500Y47750
X8500Y48750
X8500Y49750
X8500Y50750
X8500Y51750
X8500Y52750
X8500Y53750
X8500Y54750
X5500Y54750
X5500Y53750
X5500Y52750
X5500Y51750
X5500Y50750
X5500Y49750
X5500Y48750
X5500Y47750
X6000Y57750
X6000Y60750
X9000Y60750
X9000Y57750
X69000Y47250
X70500Y47250
T03
X50750Y7500
X50750Y6500
X50750Y5500
X49750Y5500
X49750Y6500
X49750Y7500
X48750Y7500
X48750Y6500
X48750Y5500
X47750Y5500
X47750Y6500
X47750Y7500
X46750Y7500
X46750Y6500
X46750Y5500
X45750Y5500
X45750Y6500
X45750Y7500
X44750Y7500
X44750Y6500
X44750Y5500
X43750Y5500
X43750Y6500
X43750Y7500
X42750Y7500
X42750Y6500
X42750Y5500
X41750Y5500
X41750Y6500
X41750Y7500
X40750Y7500
X40750Y6500
X40750Y5500
X39750Y5500
X39750Y6500
X39750Y7500
X38750Y7500
X38750Y6500
X38750Y5500
X37750Y5500
X37750Y6500
X37750Y7500
X36750Y7500
X36750Y6500
X36750Y5500
X35750Y5500
X35750Y6500
X35750Y7500
X34750Y7500
X34750Y6500
X34750Y5500
X33750Y5500
X33750Y6500
X33750Y7500
X32750Y7500
X32750Y6500
X32750Y5500
X31750Y5500
X31750Y6500
X31750Y7500
X30750Y7500
X30750Y6500
X30750Y5500
X29750Y5500
X29750Y6500
X29750Y7500
X28750Y7500
X28750Y6500
X28750Y5500
X27750Y5500
X27750Y6500
X27750Y7500
X26750Y7500
X26750Y6500
X26750Y5500
X25750Y5500
X25750Y6500
X25750Y7500
X24750Y7500
X24750Y6500
X24750Y5500
X23750Y5500
X23750Y6500
X23750Y7500
X22750Y7500
X22750Y6500
X22750Y5500
X21750Y5500
X21750Y6500
X21750Y7500
X20750Y7500
X20750Y6500
X20750Y5500
X19750Y5500
X19750Y6500
X19750Y7500
X7500Y11750
X7500Y12750
X6500Y12750
X6500Y11750
X5500Y11750
X5500Y12750
X5500Y13750
X5500Y14750
X6500Y14750
X6500Y13750
X7500Y13750
X7500Y14750
X7500Y15750
X7500Y16750
X7500Y17750
X6500Y17750
X6500Y16750
X6500Y15750
X5500Y15750
X5500Y16750
X5500Y17750
X5500Y18750
X5500Y19750
X6500Y19750
X6500Y18750
X7500Y18750
X7500Y19750
X7500Y20750
X7500Y21750
X6500Y21750
X6500Y20750
X5500Y20750
X5500Y21750
X5500Y22750
X5500Y23750
X6500Y23750
X6500Y22750
X7500Y22750
X7500Y23750
X7500Y24750
X7500Y25750
X6500Y25750
X6500Y24750
X5500Y24750
X5500Y25750
X5500Y26750
X5500Y27750
X6500Y27750
X6500Y26750
X7500Y26750
X7500Y27750
X7500Y28750
X7500Y29750
X7500Y30750
X6500Y30750
X6500Y29750
X6500Y28750
X5500Y28750
X5500Y29750
X5500Y30750
X5500Y31750
X5500Y32750
X6500Y32750
X6500Y31750
X7500Y31750
X7500Y32750
X7500Y33750
X7500Y34750
X6500Y34750
X6500Y33750
X5500Y33750
X5500Y34750
X5500Y35750
X5500Y36750
X6500Y36750
X6500Y35750
X7500Y35750
X7500Y36750
X7500Y37750
X7500Y38750
X6500Y38750
X6500Y37750
X5500Y37750
X5500Y38750
X5500Y39750
X5500Y40750
X6500Y40750
X6500Y39750
X7500Y39750
X7500Y40750
X7500Y41750
X7500Y42750
X6500Y42750
X6500Y41750
X5500Y41750
X5500Y42750
T04
X10000Y48750
X10000Y49750
X11000Y49750
X11000Y48750
X11000Y50750
X11000Y51750
X10000Y51750
X10000Y50750
X10000Y52750
X10000Y53750
X11000Y53750
X11000Y52750
X11000Y58750
X11000Y59750
X11000Y64750
X10000Y64750
X10000Y65750
X11000Y65750
X9000Y65750
X9000Y64750
X15000Y64750
X15000Y65750
X16000Y65750
X17000Y65750
X18000Y65750
X18000Y64750
X17000Y64750
X16000Y64750
X19000Y64750
X19000Y65750
X23000Y65750
X24000Y65750
X24000Y64750
X23000Y64750
X25000Y64750
X26000Y64750
X27000Y64750
X27000Y65750
X26000Y65750
X25000Y65750
X33000Y65250
X34000Y65250
X35000Y65250
X35000Y63000
X34000Y63000
X33000Y63000
X36500Y59250
X36500Y58250
X36500Y57250
X36500Y56250
X36500Y55250
X36500Y54250
X36500Y53250
X36500Y52250
X36500Y51250
X36500Y50250
X41500Y50250
X41500Y51250
X41500Y52250
X41500Y53250
X41500Y54250
X41500Y55250
X41500Y56250
X41500Y57250
X41500Y58250
X41500Y59250
X42500Y62250
X42500Y63250
X42500Y64250
X46000Y60750
X47000Y60750
X48000Y60750
X54000Y58250
X55000Y58250
X55000Y57250
X54000Y57250
X56000Y57250
X57000Y57250
X58000Y57250
X58000Y58250
X57000Y58250
X56000Y58250
X55500Y61750
X54500Y61750
X54500Y64350
X55500Y64350
X56500Y64350
X56000Y53250
X56000Y52250
X57000Y52250
X57000Y53250
X58000Y53250
X58000Y52250
X55000Y52250
X55000Y53250
X54000Y53250
X54000Y52250
X55500Y44250
X55500Y43250
X56500Y43250
X56500Y44250
X56500Y42250
X56500Y41250
X55500Y41250
X55500Y42250
X55500Y40250
X55500Y39250
X56500Y39250
X56500Y40250
X56500Y38250
X56500Y37250
X56500Y36250
X55500Y36250
X55500Y37250
X55500Y38250
X55500Y35250
X55500Y34250
X56500Y34250
X56500Y35250
X56500Y33250
X56500Y32250
X55500Y32250
X55500Y33250
X55500Y31250
X55500Y30250
X56500Y30250
X56500Y31250
X56500Y29250
X55500Y29250
X55500Y24250
X55500Y23250
X56500Y23250
X56500Y24250
X56500Y22250
X56500Y21250
X55500Y21250
X55500Y22250
X55500Y20250
X55500Y19250
X56500Y19250
X56500Y20250
X56500Y18250
X56500Y17250
X55500Y17250
X55500Y18250
X55500Y16250
X55500Y15250
X56500Y15250
X56500Y16250
X56500Y14250
X56500Y13250
X55500Y13250
X55500Y14250
X55500Y12250
X55500Y11250
X56500Y11250
X56500Y12250
X56500Y10250
X56500Y9250
X55500Y9250
X55500Y10250
X61000Y6250
X62000Y6250
X62000Y5250
X61000Y5250
X63000Y5250
X64000Y5250
X65000Y5250
X65000Y6250
X64000Y6250
X63000Y6250
X67500Y8750
X68500Y8750
X68500Y9750
X68500Y10750
X67500Y10750
X67500Y9750
X67500Y11750
X68500Y11750
X68500Y12750
X67500Y14250
X67500Y15250
X73500Y12750
X73500Y11750
X73500Y10750
X73500Y9750
X73500Y8750
X66000Y23750
X66000Y24750
X66000Y25750
X65500Y42750
X66500Y42750
X66500Y43750
X66500Y44750
X65500Y44750
X65500Y43750
X67500Y43750
X67500Y44750
X68500Y44750
X68500Y43750
X68500Y42750
X67500Y42750
X71860Y55470
X73640Y55470
X73640Y58030
X73640Y59470
X71860Y59470
X71860Y58030
X71860Y62030
X73640Y62030
X17000Y43250
X16000Y42750
X16000Y41750
X17000Y41250
X17000Y42250
X16000Y40750
X16000Y39750
X17000Y39250
X17000Y40250
X16000Y38750
X16000Y37750
X17000Y37250
X17000Y36250
X16000Y35750
X16000Y36750
X17000Y35250
X17000Y34250
X16000Y33750
X16000Y34750
X17000Y33250
X17000Y32250
X16000Y32750
X17000Y31250
X17000Y30250
X16000Y29750
X16000Y28750
X17000Y29250
X17000Y27750
X17000Y26750
X16000Y27750
X17000Y25750
X17000Y24750
X17000Y23750
X17000Y22750
X16000Y22250
X16000Y21250
X17000Y20750
X17000Y21750
X16000Y20250
X16000Y19250
X17000Y18750
X17000Y19750
X16000Y18250
X16000Y17250
X17000Y16750
X17000Y15750
X16000Y15250
X16000Y16250
X17000Y14750
X17000Y13750
X16000Y13250
X16000Y14250
X17000Y12750
X17000Y11750
X16000Y11250
X16000Y12250
X17000Y10750
X16000Y10250
X13000Y5750
X12000Y5750
X11000Y5750
X8500Y7750
X8500Y8750
X17000Y17750
X16000Y30750
X17000Y38250
X16000Y43750
T05
X59000Y61250
X59000Y62250
X59000Y63250
T06
X55500Y60750
X51500Y60750
X66000Y55250
X70000Y55250
T07
X47484Y65073
X45516Y65073
T08
X49110Y64000
X51000Y62819
X51000Y65181
T09
X4500Y44750
X4500Y9750
X17750Y4500
X52750Y4500
T10
X5375Y5375
X38250Y26750
X73125Y5375
X73250Y65500
X5750Y65500
M30
