G75*
%MOIN*%
%OFA0B0*%
%FSLAX24Y24*%
%IPPOS*%
%LPD*%
%AMOC8*
5,1,8,0,0,1.08239X$1,22.5*
%
%ADD10C,0.0000*%
%ADD11C,0.0480*%
%ADD12C,0.0600*%
%ADD13C,0.0630*%
%ADD14C,0.0650*%
%ADD15R,0.0591X0.0394*%
%ADD16C,0.0660*%
%ADD17R,0.0425X0.0413*%
%ADD18C,0.1000*%
%ADD19R,0.0433X0.0394*%
%ADD20R,0.0413X0.0425*%
%ADD21R,0.0236X0.0866*%
%ADD22R,0.0866X0.0236*%
%ADD23R,0.0394X0.0433*%
%ADD24R,0.0217X0.0472*%
%ADD25R,0.0551X0.0394*%
%ADD26R,0.1161X0.1063*%
%ADD27R,0.1063X0.1161*%
%ADD28C,0.0937*%
%ADD29R,0.0472X0.0217*%
%ADD30C,0.0250*%
%ADD31C,0.0240*%
%ADD32C,0.0160*%
%ADD33C,0.0100*%
%ADD34C,0.0500*%
%ADD35C,0.0320*%
D10*
X003500Y003500D02*
X003500Y067673D01*
X075547Y067673D01*
X075547Y003500D01*
X003500Y003500D01*
X004784Y005375D02*
X004786Y005423D01*
X004792Y005471D01*
X004802Y005518D01*
X004815Y005564D01*
X004833Y005609D01*
X004853Y005653D01*
X004878Y005695D01*
X004906Y005734D01*
X004936Y005771D01*
X004970Y005805D01*
X005007Y005837D01*
X005045Y005866D01*
X005086Y005891D01*
X005129Y005913D01*
X005174Y005931D01*
X005220Y005945D01*
X005267Y005956D01*
X005315Y005963D01*
X005363Y005966D01*
X005411Y005965D01*
X005459Y005960D01*
X005507Y005951D01*
X005553Y005939D01*
X005598Y005922D01*
X005642Y005902D01*
X005684Y005879D01*
X005724Y005852D01*
X005762Y005822D01*
X005797Y005789D01*
X005829Y005753D01*
X005859Y005715D01*
X005885Y005674D01*
X005907Y005631D01*
X005927Y005587D01*
X005942Y005542D01*
X005954Y005495D01*
X005962Y005447D01*
X005966Y005399D01*
X005966Y005351D01*
X005962Y005303D01*
X005954Y005255D01*
X005942Y005208D01*
X005927Y005163D01*
X005907Y005119D01*
X005885Y005076D01*
X005859Y005035D01*
X005829Y004997D01*
X005797Y004961D01*
X005762Y004928D01*
X005724Y004898D01*
X005684Y004871D01*
X005642Y004848D01*
X005598Y004828D01*
X005553Y004811D01*
X005507Y004799D01*
X005459Y004790D01*
X005411Y004785D01*
X005363Y004784D01*
X005315Y004787D01*
X005267Y004794D01*
X005220Y004805D01*
X005174Y004819D01*
X005129Y004837D01*
X005086Y004859D01*
X005045Y004884D01*
X005007Y004913D01*
X004970Y004945D01*
X004936Y004979D01*
X004906Y005016D01*
X004878Y005055D01*
X004853Y005097D01*
X004833Y005141D01*
X004815Y005186D01*
X004802Y005232D01*
X004792Y005279D01*
X004786Y005327D01*
X004784Y005375D01*
X003949Y009750D02*
X003951Y009797D01*
X003957Y009843D01*
X003967Y009889D01*
X003980Y009934D01*
X003998Y009977D01*
X004019Y010019D01*
X004043Y010059D01*
X004071Y010096D01*
X004102Y010131D01*
X004136Y010164D01*
X004172Y010193D01*
X004211Y010219D01*
X004252Y010242D01*
X004295Y010261D01*
X004339Y010277D01*
X004384Y010289D01*
X004430Y010297D01*
X004477Y010301D01*
X004523Y010301D01*
X004570Y010297D01*
X004616Y010289D01*
X004661Y010277D01*
X004705Y010261D01*
X004748Y010242D01*
X004789Y010219D01*
X004828Y010193D01*
X004864Y010164D01*
X004898Y010131D01*
X004929Y010096D01*
X004957Y010059D01*
X004981Y010019D01*
X005002Y009977D01*
X005020Y009934D01*
X005033Y009889D01*
X005043Y009843D01*
X005049Y009797D01*
X005051Y009750D01*
X005049Y009703D01*
X005043Y009657D01*
X005033Y009611D01*
X005020Y009566D01*
X005002Y009523D01*
X004981Y009481D01*
X004957Y009441D01*
X004929Y009404D01*
X004898Y009369D01*
X004864Y009336D01*
X004828Y009307D01*
X004789Y009281D01*
X004748Y009258D01*
X004705Y009239D01*
X004661Y009223D01*
X004616Y009211D01*
X004570Y009203D01*
X004523Y009199D01*
X004477Y009199D01*
X004430Y009203D01*
X004384Y009211D01*
X004339Y009223D01*
X004295Y009239D01*
X004252Y009258D01*
X004211Y009281D01*
X004172Y009307D01*
X004136Y009336D01*
X004102Y009369D01*
X004071Y009404D01*
X004043Y009441D01*
X004019Y009481D01*
X003998Y009523D01*
X003980Y009566D01*
X003967Y009611D01*
X003957Y009657D01*
X003951Y009703D01*
X003949Y009750D01*
X017199Y004500D02*
X017201Y004547D01*
X017207Y004593D01*
X017217Y004639D01*
X017230Y004684D01*
X017248Y004727D01*
X017269Y004769D01*
X017293Y004809D01*
X017321Y004846D01*
X017352Y004881D01*
X017386Y004914D01*
X017422Y004943D01*
X017461Y004969D01*
X017502Y004992D01*
X017545Y005011D01*
X017589Y005027D01*
X017634Y005039D01*
X017680Y005047D01*
X017727Y005051D01*
X017773Y005051D01*
X017820Y005047D01*
X017866Y005039D01*
X017911Y005027D01*
X017955Y005011D01*
X017998Y004992D01*
X018039Y004969D01*
X018078Y004943D01*
X018114Y004914D01*
X018148Y004881D01*
X018179Y004846D01*
X018207Y004809D01*
X018231Y004769D01*
X018252Y004727D01*
X018270Y004684D01*
X018283Y004639D01*
X018293Y004593D01*
X018299Y004547D01*
X018301Y004500D01*
X018299Y004453D01*
X018293Y004407D01*
X018283Y004361D01*
X018270Y004316D01*
X018252Y004273D01*
X018231Y004231D01*
X018207Y004191D01*
X018179Y004154D01*
X018148Y004119D01*
X018114Y004086D01*
X018078Y004057D01*
X018039Y004031D01*
X017998Y004008D01*
X017955Y003989D01*
X017911Y003973D01*
X017866Y003961D01*
X017820Y003953D01*
X017773Y003949D01*
X017727Y003949D01*
X017680Y003953D01*
X017634Y003961D01*
X017589Y003973D01*
X017545Y003989D01*
X017502Y004008D01*
X017461Y004031D01*
X017422Y004057D01*
X017386Y004086D01*
X017352Y004119D01*
X017321Y004154D01*
X017293Y004191D01*
X017269Y004231D01*
X017248Y004273D01*
X017230Y004316D01*
X017217Y004361D01*
X017207Y004407D01*
X017201Y004453D01*
X017199Y004500D01*
X037659Y026750D02*
X037661Y026798D01*
X037667Y026846D01*
X037677Y026893D01*
X037690Y026939D01*
X037708Y026984D01*
X037728Y027028D01*
X037753Y027070D01*
X037781Y027109D01*
X037811Y027146D01*
X037845Y027180D01*
X037882Y027212D01*
X037920Y027241D01*
X037961Y027266D01*
X038004Y027288D01*
X038049Y027306D01*
X038095Y027320D01*
X038142Y027331D01*
X038190Y027338D01*
X038238Y027341D01*
X038286Y027340D01*
X038334Y027335D01*
X038382Y027326D01*
X038428Y027314D01*
X038473Y027297D01*
X038517Y027277D01*
X038559Y027254D01*
X038599Y027227D01*
X038637Y027197D01*
X038672Y027164D01*
X038704Y027128D01*
X038734Y027090D01*
X038760Y027049D01*
X038782Y027006D01*
X038802Y026962D01*
X038817Y026917D01*
X038829Y026870D01*
X038837Y026822D01*
X038841Y026774D01*
X038841Y026726D01*
X038837Y026678D01*
X038829Y026630D01*
X038817Y026583D01*
X038802Y026538D01*
X038782Y026494D01*
X038760Y026451D01*
X038734Y026410D01*
X038704Y026372D01*
X038672Y026336D01*
X038637Y026303D01*
X038599Y026273D01*
X038559Y026246D01*
X038517Y026223D01*
X038473Y026203D01*
X038428Y026186D01*
X038382Y026174D01*
X038334Y026165D01*
X038286Y026160D01*
X038238Y026159D01*
X038190Y026162D01*
X038142Y026169D01*
X038095Y026180D01*
X038049Y026194D01*
X038004Y026212D01*
X037961Y026234D01*
X037920Y026259D01*
X037882Y026288D01*
X037845Y026320D01*
X037811Y026354D01*
X037781Y026391D01*
X037753Y026430D01*
X037728Y026472D01*
X037708Y026516D01*
X037690Y026561D01*
X037677Y026607D01*
X037667Y026654D01*
X037661Y026702D01*
X037659Y026750D01*
X052199Y004500D02*
X052201Y004547D01*
X052207Y004593D01*
X052217Y004639D01*
X052230Y004684D01*
X052248Y004727D01*
X052269Y004769D01*
X052293Y004809D01*
X052321Y004846D01*
X052352Y004881D01*
X052386Y004914D01*
X052422Y004943D01*
X052461Y004969D01*
X052502Y004992D01*
X052545Y005011D01*
X052589Y005027D01*
X052634Y005039D01*
X052680Y005047D01*
X052727Y005051D01*
X052773Y005051D01*
X052820Y005047D01*
X052866Y005039D01*
X052911Y005027D01*
X052955Y005011D01*
X052998Y004992D01*
X053039Y004969D01*
X053078Y004943D01*
X053114Y004914D01*
X053148Y004881D01*
X053179Y004846D01*
X053207Y004809D01*
X053231Y004769D01*
X053252Y004727D01*
X053270Y004684D01*
X053283Y004639D01*
X053293Y004593D01*
X053299Y004547D01*
X053301Y004500D01*
X053299Y004453D01*
X053293Y004407D01*
X053283Y004361D01*
X053270Y004316D01*
X053252Y004273D01*
X053231Y004231D01*
X053207Y004191D01*
X053179Y004154D01*
X053148Y004119D01*
X053114Y004086D01*
X053078Y004057D01*
X053039Y004031D01*
X052998Y004008D01*
X052955Y003989D01*
X052911Y003973D01*
X052866Y003961D01*
X052820Y003953D01*
X052773Y003949D01*
X052727Y003949D01*
X052680Y003953D01*
X052634Y003961D01*
X052589Y003973D01*
X052545Y003989D01*
X052502Y004008D01*
X052461Y004031D01*
X052422Y004057D01*
X052386Y004086D01*
X052352Y004119D01*
X052321Y004154D01*
X052293Y004191D01*
X052269Y004231D01*
X052248Y004273D01*
X052230Y004316D01*
X052217Y004361D01*
X052207Y004407D01*
X052201Y004453D01*
X052199Y004500D01*
X072534Y005375D02*
X072536Y005423D01*
X072542Y005471D01*
X072552Y005518D01*
X072565Y005564D01*
X072583Y005609D01*
X072603Y005653D01*
X072628Y005695D01*
X072656Y005734D01*
X072686Y005771D01*
X072720Y005805D01*
X072757Y005837D01*
X072795Y005866D01*
X072836Y005891D01*
X072879Y005913D01*
X072924Y005931D01*
X072970Y005945D01*
X073017Y005956D01*
X073065Y005963D01*
X073113Y005966D01*
X073161Y005965D01*
X073209Y005960D01*
X073257Y005951D01*
X073303Y005939D01*
X073348Y005922D01*
X073392Y005902D01*
X073434Y005879D01*
X073474Y005852D01*
X073512Y005822D01*
X073547Y005789D01*
X073579Y005753D01*
X073609Y005715D01*
X073635Y005674D01*
X073657Y005631D01*
X073677Y005587D01*
X073692Y005542D01*
X073704Y005495D01*
X073712Y005447D01*
X073716Y005399D01*
X073716Y005351D01*
X073712Y005303D01*
X073704Y005255D01*
X073692Y005208D01*
X073677Y005163D01*
X073657Y005119D01*
X073635Y005076D01*
X073609Y005035D01*
X073579Y004997D01*
X073547Y004961D01*
X073512Y004928D01*
X073474Y004898D01*
X073434Y004871D01*
X073392Y004848D01*
X073348Y004828D01*
X073303Y004811D01*
X073257Y004799D01*
X073209Y004790D01*
X073161Y004785D01*
X073113Y004784D01*
X073065Y004787D01*
X073017Y004794D01*
X072970Y004805D01*
X072924Y004819D01*
X072879Y004837D01*
X072836Y004859D01*
X072795Y004884D01*
X072757Y004913D01*
X072720Y004945D01*
X072686Y004979D01*
X072656Y005016D01*
X072628Y005055D01*
X072603Y005097D01*
X072583Y005141D01*
X072565Y005186D01*
X072552Y005232D01*
X072542Y005279D01*
X072536Y005327D01*
X072534Y005375D01*
X072659Y065500D02*
X072661Y065548D01*
X072667Y065596D01*
X072677Y065643D01*
X072690Y065689D01*
X072708Y065734D01*
X072728Y065778D01*
X072753Y065820D01*
X072781Y065859D01*
X072811Y065896D01*
X072845Y065930D01*
X072882Y065962D01*
X072920Y065991D01*
X072961Y066016D01*
X073004Y066038D01*
X073049Y066056D01*
X073095Y066070D01*
X073142Y066081D01*
X073190Y066088D01*
X073238Y066091D01*
X073286Y066090D01*
X073334Y066085D01*
X073382Y066076D01*
X073428Y066064D01*
X073473Y066047D01*
X073517Y066027D01*
X073559Y066004D01*
X073599Y065977D01*
X073637Y065947D01*
X073672Y065914D01*
X073704Y065878D01*
X073734Y065840D01*
X073760Y065799D01*
X073782Y065756D01*
X073802Y065712D01*
X073817Y065667D01*
X073829Y065620D01*
X073837Y065572D01*
X073841Y065524D01*
X073841Y065476D01*
X073837Y065428D01*
X073829Y065380D01*
X073817Y065333D01*
X073802Y065288D01*
X073782Y065244D01*
X073760Y065201D01*
X073734Y065160D01*
X073704Y065122D01*
X073672Y065086D01*
X073637Y065053D01*
X073599Y065023D01*
X073559Y064996D01*
X073517Y064973D01*
X073473Y064953D01*
X073428Y064936D01*
X073382Y064924D01*
X073334Y064915D01*
X073286Y064910D01*
X073238Y064909D01*
X073190Y064912D01*
X073142Y064919D01*
X073095Y064930D01*
X073049Y064944D01*
X073004Y064962D01*
X072961Y064984D01*
X072920Y065009D01*
X072882Y065038D01*
X072845Y065070D01*
X072811Y065104D01*
X072781Y065141D01*
X072753Y065180D01*
X072728Y065222D01*
X072708Y065266D01*
X072690Y065311D01*
X072677Y065357D01*
X072667Y065404D01*
X072661Y065452D01*
X072659Y065500D01*
X005159Y065500D02*
X005161Y065548D01*
X005167Y065596D01*
X005177Y065643D01*
X005190Y065689D01*
X005208Y065734D01*
X005228Y065778D01*
X005253Y065820D01*
X005281Y065859D01*
X005311Y065896D01*
X005345Y065930D01*
X005382Y065962D01*
X005420Y065991D01*
X005461Y066016D01*
X005504Y066038D01*
X005549Y066056D01*
X005595Y066070D01*
X005642Y066081D01*
X005690Y066088D01*
X005738Y066091D01*
X005786Y066090D01*
X005834Y066085D01*
X005882Y066076D01*
X005928Y066064D01*
X005973Y066047D01*
X006017Y066027D01*
X006059Y066004D01*
X006099Y065977D01*
X006137Y065947D01*
X006172Y065914D01*
X006204Y065878D01*
X006234Y065840D01*
X006260Y065799D01*
X006282Y065756D01*
X006302Y065712D01*
X006317Y065667D01*
X006329Y065620D01*
X006337Y065572D01*
X006341Y065524D01*
X006341Y065476D01*
X006337Y065428D01*
X006329Y065380D01*
X006317Y065333D01*
X006302Y065288D01*
X006282Y065244D01*
X006260Y065201D01*
X006234Y065160D01*
X006204Y065122D01*
X006172Y065086D01*
X006137Y065053D01*
X006099Y065023D01*
X006059Y064996D01*
X006017Y064973D01*
X005973Y064953D01*
X005928Y064936D01*
X005882Y064924D01*
X005834Y064915D01*
X005786Y064910D01*
X005738Y064909D01*
X005690Y064912D01*
X005642Y064919D01*
X005595Y064930D01*
X005549Y064944D01*
X005504Y064962D01*
X005461Y064984D01*
X005420Y065009D01*
X005382Y065038D01*
X005345Y065070D01*
X005311Y065104D01*
X005281Y065141D01*
X005253Y065180D01*
X005228Y065222D01*
X005208Y065266D01*
X005190Y065311D01*
X005177Y065357D01*
X005167Y065404D01*
X005161Y065452D01*
X005159Y065500D01*
X003949Y044750D02*
X003951Y044797D01*
X003957Y044843D01*
X003967Y044889D01*
X003980Y044934D01*
X003998Y044977D01*
X004019Y045019D01*
X004043Y045059D01*
X004071Y045096D01*
X004102Y045131D01*
X004136Y045164D01*
X004172Y045193D01*
X004211Y045219D01*
X004252Y045242D01*
X004295Y045261D01*
X004339Y045277D01*
X004384Y045289D01*
X004430Y045297D01*
X004477Y045301D01*
X004523Y045301D01*
X004570Y045297D01*
X004616Y045289D01*
X004661Y045277D01*
X004705Y045261D01*
X004748Y045242D01*
X004789Y045219D01*
X004828Y045193D01*
X004864Y045164D01*
X004898Y045131D01*
X004929Y045096D01*
X004957Y045059D01*
X004981Y045019D01*
X005002Y044977D01*
X005020Y044934D01*
X005033Y044889D01*
X005043Y044843D01*
X005049Y044797D01*
X005051Y044750D01*
X005049Y044703D01*
X005043Y044657D01*
X005033Y044611D01*
X005020Y044566D01*
X005002Y044523D01*
X004981Y044481D01*
X004957Y044441D01*
X004929Y044404D01*
X004898Y044369D01*
X004864Y044336D01*
X004828Y044307D01*
X004789Y044281D01*
X004748Y044258D01*
X004705Y044239D01*
X004661Y044223D01*
X004616Y044211D01*
X004570Y044203D01*
X004523Y044199D01*
X004477Y044199D01*
X004430Y044203D01*
X004384Y044211D01*
X004339Y044223D01*
X004295Y044239D01*
X004252Y044258D01*
X004211Y044281D01*
X004172Y044307D01*
X004136Y044336D01*
X004102Y044369D01*
X004071Y044404D01*
X004043Y044441D01*
X004019Y044481D01*
X003998Y044523D01*
X003980Y044566D01*
X003967Y044611D01*
X003957Y044657D01*
X003951Y044703D01*
X003949Y044750D01*
D11*
X005500Y047750D03*
X005500Y048750D03*
X005500Y049750D03*
X005500Y050750D03*
X005500Y051750D03*
X005500Y052750D03*
X005500Y053750D03*
X005500Y054750D03*
X008500Y054750D03*
X008500Y053750D03*
X008500Y052750D03*
X008500Y051750D03*
X008500Y050750D03*
X008500Y049750D03*
X008500Y048750D03*
X008500Y047750D03*
X010000Y042750D03*
X010000Y041750D03*
X010000Y040750D03*
X010000Y039750D03*
X010000Y038750D03*
X010000Y037750D03*
X010000Y036750D03*
X010000Y035750D03*
X010000Y034750D03*
X010000Y033750D03*
X010000Y032750D03*
X010000Y031750D03*
X010000Y030750D03*
X010000Y029750D03*
X010000Y028750D03*
X010000Y027750D03*
X010000Y026750D03*
X010000Y025750D03*
X010000Y024750D03*
X010000Y023750D03*
X010000Y022750D03*
X010000Y021750D03*
X010000Y020750D03*
X010000Y019750D03*
X010000Y018750D03*
X010000Y017750D03*
X010000Y016750D03*
X010000Y015750D03*
X010000Y014750D03*
X010000Y013750D03*
X010000Y012750D03*
X010000Y011750D03*
X019000Y011750D03*
X019000Y012750D03*
X019000Y013750D03*
X019000Y014750D03*
X019000Y015750D03*
X019000Y016750D03*
X019000Y017750D03*
X019000Y018750D03*
X019000Y019750D03*
X019000Y020750D03*
X019000Y021750D03*
X019000Y022750D03*
X019000Y023750D03*
X019000Y024750D03*
X019000Y025750D03*
X019000Y026750D03*
X019000Y027750D03*
X019000Y028750D03*
X019000Y029750D03*
X019000Y030750D03*
X019000Y031750D03*
X019000Y032750D03*
X019000Y033750D03*
X019000Y034750D03*
X019000Y035750D03*
X019000Y036750D03*
X019000Y037750D03*
X019000Y038750D03*
X019000Y039750D03*
X019000Y040750D03*
X019000Y041750D03*
X019000Y042750D03*
X020500Y042250D03*
X020500Y041250D03*
X020500Y040250D03*
X020500Y039250D03*
X020500Y038250D03*
X020500Y037250D03*
X020500Y036250D03*
X020500Y035250D03*
X020500Y034250D03*
X023500Y034250D03*
X023500Y035250D03*
X023500Y036250D03*
X023500Y037250D03*
X023500Y038250D03*
X023500Y039250D03*
X023500Y040250D03*
X023500Y041250D03*
X023500Y042250D03*
X023500Y043250D03*
X025000Y043250D03*
X025000Y042250D03*
X025000Y041250D03*
X025000Y040250D03*
X025000Y039250D03*
X025000Y038250D03*
X025000Y037250D03*
X025000Y036250D03*
X025000Y035250D03*
X025000Y034250D03*
X028000Y034250D03*
X028000Y035250D03*
X028000Y036250D03*
X028000Y037250D03*
X028000Y038250D03*
X028000Y039250D03*
X028000Y040250D03*
X028000Y041250D03*
X028000Y042250D03*
X028000Y043250D03*
X031500Y043250D03*
X031500Y044250D03*
X031500Y042250D03*
X031500Y041250D03*
X031500Y040250D03*
X031500Y039250D03*
X031500Y038250D03*
X031500Y037250D03*
X031500Y036250D03*
X031500Y035250D03*
X031500Y034250D03*
X031500Y033250D03*
X031500Y032250D03*
X031500Y031250D03*
X031500Y030250D03*
X031500Y029250D03*
X028000Y029250D03*
X028000Y028250D03*
X028000Y027250D03*
X028000Y026250D03*
X028000Y025250D03*
X028000Y024250D03*
X025000Y024250D03*
X025000Y025250D03*
X025000Y026250D03*
X025000Y027250D03*
X025000Y028250D03*
X025000Y029250D03*
X025000Y030250D03*
X025000Y031250D03*
X023500Y031250D03*
X023500Y030250D03*
X023500Y029250D03*
X023500Y028250D03*
X023500Y027250D03*
X023500Y026250D03*
X023500Y025250D03*
X023500Y024250D03*
X023500Y023250D03*
X023500Y022250D03*
X023500Y019250D03*
X023500Y018250D03*
X023500Y017250D03*
X023500Y016250D03*
X023500Y015250D03*
X023500Y014250D03*
X023500Y013250D03*
X023500Y012250D03*
X023500Y011250D03*
X023500Y010250D03*
X025000Y010250D03*
X025000Y011250D03*
X025000Y012250D03*
X025000Y013250D03*
X025000Y014250D03*
X025000Y015250D03*
X025000Y016250D03*
X025000Y017250D03*
X025000Y018250D03*
X025000Y019250D03*
X028000Y019250D03*
X028000Y018250D03*
X028000Y017250D03*
X028000Y016250D03*
X028000Y015250D03*
X028000Y014250D03*
X028000Y013250D03*
X028000Y012250D03*
X028000Y011250D03*
X028000Y010250D03*
X031500Y010250D03*
X031500Y009250D03*
X031500Y011250D03*
X031500Y012250D03*
X031500Y013250D03*
X031500Y014250D03*
X031500Y015250D03*
X031500Y016250D03*
X031500Y017250D03*
X031500Y018250D03*
X031500Y019250D03*
X031500Y020250D03*
X031500Y021250D03*
X031500Y022250D03*
X031500Y023250D03*
X031500Y024250D03*
X037500Y024250D03*
X037500Y023250D03*
X037500Y022250D03*
X037500Y021250D03*
X037500Y020250D03*
X037500Y019250D03*
X037500Y018250D03*
X037500Y017250D03*
X037500Y016250D03*
X037500Y015250D03*
X037500Y014250D03*
X037500Y013250D03*
X037500Y012250D03*
X037500Y011250D03*
X037500Y010250D03*
X037500Y009250D03*
X039000Y009250D03*
X039000Y010250D03*
X039000Y011250D03*
X039000Y012250D03*
X039000Y013250D03*
X039000Y014250D03*
X039000Y015250D03*
X039000Y016250D03*
X039000Y017250D03*
X039000Y018250D03*
X039000Y019250D03*
X039000Y020250D03*
X039000Y021250D03*
X039000Y022250D03*
X039000Y023250D03*
X039000Y024250D03*
X039000Y029250D03*
X039000Y030250D03*
X039000Y031250D03*
X039000Y032250D03*
X039000Y033250D03*
X039000Y034250D03*
X039000Y035250D03*
X039000Y036250D03*
X039000Y037250D03*
X039000Y038250D03*
X039000Y039250D03*
X039000Y040250D03*
X039000Y041250D03*
X039000Y042250D03*
X039000Y043250D03*
X039000Y044250D03*
X037500Y044250D03*
X037500Y043250D03*
X037500Y042250D03*
X037500Y041250D03*
X037500Y040250D03*
X037500Y039250D03*
X037500Y038250D03*
X037500Y037250D03*
X037500Y036250D03*
X037500Y035250D03*
X037500Y034250D03*
X037500Y033250D03*
X037500Y032250D03*
X037500Y031250D03*
X037500Y030250D03*
X037500Y029250D03*
X045000Y029250D03*
X045000Y030250D03*
X045000Y031250D03*
X045000Y032250D03*
X045000Y033250D03*
X045000Y034250D03*
X045000Y035250D03*
X045000Y036250D03*
X045000Y037250D03*
X045000Y038250D03*
X045000Y039250D03*
X045000Y040250D03*
X045000Y041250D03*
X045000Y042250D03*
X045000Y043250D03*
X045000Y044250D03*
X046500Y044250D03*
X046500Y043250D03*
X046500Y042250D03*
X046500Y041250D03*
X046500Y040250D03*
X046500Y039250D03*
X046500Y038250D03*
X046500Y037250D03*
X046500Y036250D03*
X046500Y035250D03*
X046500Y034250D03*
X046500Y033250D03*
X046500Y032250D03*
X046500Y031250D03*
X046500Y030250D03*
X046500Y029250D03*
X046500Y024250D03*
X046500Y023250D03*
X046500Y022250D03*
X046500Y021250D03*
X046500Y020250D03*
X046500Y019250D03*
X046500Y018250D03*
X046500Y017250D03*
X046500Y016250D03*
X046500Y015250D03*
X046500Y014250D03*
X046500Y013250D03*
X046500Y012250D03*
X046500Y011250D03*
X046500Y010250D03*
X046500Y009250D03*
X045000Y009250D03*
X045000Y010250D03*
X045000Y011250D03*
X045000Y012250D03*
X045000Y013250D03*
X045000Y014250D03*
X045000Y015250D03*
X045000Y016250D03*
X045000Y017250D03*
X045000Y018250D03*
X045000Y019250D03*
X045000Y020250D03*
X045000Y021250D03*
X045000Y022250D03*
X045000Y023250D03*
X045000Y024250D03*
X052500Y024250D03*
X052500Y023250D03*
X052500Y022250D03*
X052500Y021250D03*
X052500Y020250D03*
X052500Y019250D03*
X052500Y018250D03*
X052500Y017250D03*
X052500Y016250D03*
X052500Y015250D03*
X052500Y014250D03*
X052500Y013250D03*
X052500Y012250D03*
X052500Y011250D03*
X052500Y010250D03*
X052500Y009250D03*
X060000Y008750D03*
X060000Y009750D03*
X060000Y010750D03*
X060000Y011750D03*
X060000Y012750D03*
X060000Y013750D03*
X060000Y014750D03*
X060000Y015750D03*
X060000Y016750D03*
X060000Y017750D03*
X060000Y018750D03*
X060000Y019750D03*
X066000Y019750D03*
X066000Y018750D03*
X066000Y017750D03*
X066000Y016750D03*
X066000Y015750D03*
X066000Y014750D03*
X066000Y013750D03*
X066000Y012750D03*
X066000Y011750D03*
X066000Y010750D03*
X066000Y009750D03*
X066000Y008750D03*
X069500Y009750D03*
X069500Y010750D03*
X069500Y011750D03*
X069500Y012750D03*
X072500Y012750D03*
X072500Y011750D03*
X072500Y010750D03*
X072500Y009750D03*
X073500Y016250D03*
X073500Y017250D03*
X073500Y018250D03*
X073500Y019250D03*
X073500Y020250D03*
X073500Y021250D03*
X073500Y022250D03*
X073500Y023250D03*
X070500Y023250D03*
X070500Y022250D03*
X070500Y021250D03*
X070500Y020250D03*
X070500Y019250D03*
X070500Y018250D03*
X070500Y017250D03*
X070500Y016250D03*
X070500Y026750D03*
X070500Y027750D03*
X070500Y028750D03*
X070500Y029750D03*
X070500Y030750D03*
X070500Y031750D03*
X070500Y032750D03*
X070500Y033750D03*
X070500Y034750D03*
X070500Y035750D03*
X070500Y036750D03*
X070500Y037750D03*
X073500Y037750D03*
X073500Y036750D03*
X073500Y035750D03*
X073500Y034750D03*
X073500Y033750D03*
X073500Y032750D03*
X073500Y031750D03*
X073500Y030750D03*
X073500Y029750D03*
X073500Y028750D03*
X073500Y027750D03*
X073500Y026750D03*
X066000Y028750D03*
X066000Y029750D03*
X066000Y030750D03*
X066000Y031750D03*
X066000Y032750D03*
X066000Y033750D03*
X066000Y034750D03*
X066000Y035750D03*
X066000Y036750D03*
X066000Y037750D03*
X066000Y038750D03*
X066000Y039750D03*
X070500Y041250D03*
X070500Y044250D03*
X073500Y044250D03*
X073500Y041250D03*
X073500Y047250D03*
X073500Y049250D03*
X073500Y051250D03*
X073500Y052250D03*
X073500Y053250D03*
X070500Y053250D03*
X070500Y052250D03*
X070500Y051250D03*
X070500Y050250D03*
X070500Y049250D03*
X069000Y049250D03*
X069000Y051250D03*
X069000Y052250D03*
X069000Y053250D03*
X066000Y053250D03*
X066000Y052250D03*
X066000Y051250D03*
X066000Y050250D03*
X066000Y049250D03*
X066000Y047250D03*
X064000Y047250D03*
X064000Y048250D03*
X064000Y049250D03*
X064000Y050250D03*
X064000Y051250D03*
X064000Y052250D03*
X064000Y053250D03*
X064000Y054250D03*
X064000Y056750D03*
X064000Y057750D03*
X064000Y058750D03*
X064000Y059750D03*
X064000Y060750D03*
X064000Y061750D03*
X064000Y062750D03*
X064000Y063750D03*
X064000Y064750D03*
X064000Y065750D03*
X066000Y065750D03*
X066000Y064750D03*
X066000Y063750D03*
X066000Y062750D03*
X066000Y061750D03*
X066000Y060750D03*
X066000Y059750D03*
X066000Y058750D03*
X066000Y057750D03*
X066000Y056750D03*
X069000Y056750D03*
X069000Y057750D03*
X069000Y058750D03*
X069000Y059750D03*
X069000Y060750D03*
X069000Y061750D03*
X069000Y062750D03*
X069000Y063750D03*
X069000Y064750D03*
X069000Y065750D03*
X061000Y065750D03*
X061000Y064750D03*
X061000Y063750D03*
X061000Y062750D03*
X061000Y061750D03*
X061000Y060750D03*
X061000Y059750D03*
X061000Y058750D03*
X061000Y057750D03*
X061000Y056750D03*
X061000Y054250D03*
X061000Y053250D03*
X061000Y052250D03*
X061000Y051250D03*
X061000Y050250D03*
X061000Y049250D03*
X061000Y048250D03*
X061000Y047250D03*
X060000Y039750D03*
X060000Y038750D03*
X060000Y037750D03*
X060000Y036750D03*
X060000Y035750D03*
X060000Y034750D03*
X060000Y033750D03*
X060000Y032750D03*
X060000Y031750D03*
X060000Y030750D03*
X060000Y029750D03*
X060000Y028750D03*
X052500Y029250D03*
X052500Y030250D03*
X052500Y031250D03*
X052500Y032250D03*
X052500Y033250D03*
X052500Y034250D03*
X052500Y035250D03*
X052500Y036250D03*
X052500Y037250D03*
X052500Y038250D03*
X052500Y039250D03*
X052500Y040250D03*
X052500Y041250D03*
X052500Y042250D03*
X052500Y043250D03*
X052500Y044250D03*
X051500Y050250D03*
X051500Y051250D03*
X051500Y052250D03*
X051500Y053250D03*
X051500Y054250D03*
X051500Y055250D03*
X051500Y056250D03*
X051500Y057250D03*
X051500Y058250D03*
X051500Y059250D03*
X048500Y059250D03*
X048500Y058250D03*
X048500Y057250D03*
X048500Y056250D03*
X048500Y055250D03*
X048500Y054250D03*
X048500Y053250D03*
X048500Y052250D03*
X048500Y051250D03*
X048500Y050250D03*
X046500Y050250D03*
X046500Y051250D03*
X046500Y052250D03*
X046500Y053250D03*
X046500Y054250D03*
X046500Y055250D03*
X046500Y056250D03*
X046500Y057250D03*
X043500Y057250D03*
X043500Y056250D03*
X043500Y055250D03*
X043500Y054250D03*
X043500Y053250D03*
X043500Y052250D03*
X043500Y051250D03*
X043500Y050250D03*
X040500Y050250D03*
X040500Y051250D03*
X040500Y052250D03*
X040500Y053250D03*
X040500Y054250D03*
X040500Y055250D03*
X040500Y056250D03*
X040500Y057250D03*
X040500Y058250D03*
X040500Y059250D03*
X037500Y059250D03*
X037500Y058250D03*
X037500Y057250D03*
X037500Y056250D03*
X037500Y055250D03*
X037500Y054250D03*
X037500Y053250D03*
X037500Y052250D03*
X037500Y051250D03*
X037500Y050250D03*
X032500Y049750D03*
X031500Y049750D03*
X031500Y048750D03*
X030500Y048750D03*
X030500Y049750D03*
X029500Y049750D03*
X029500Y048750D03*
X028500Y048750D03*
X028500Y049750D03*
X027500Y049750D03*
X027500Y048750D03*
X026500Y048750D03*
X026500Y049750D03*
X025500Y049750D03*
X025500Y048750D03*
X024500Y048750D03*
X024500Y049750D03*
X023500Y049750D03*
X023500Y048750D03*
X022500Y048750D03*
X022500Y049750D03*
X021500Y049750D03*
X021500Y048750D03*
X020500Y049750D03*
X020500Y050750D03*
X020500Y051750D03*
X021500Y051750D03*
X021500Y050750D03*
X021500Y052750D03*
X021500Y053750D03*
X020500Y053750D03*
X020500Y052750D03*
X020500Y054750D03*
X020500Y055750D03*
X021500Y055750D03*
X021500Y054750D03*
X021500Y056750D03*
X021500Y057750D03*
X021500Y058750D03*
X020500Y058750D03*
X020500Y057750D03*
X020500Y056750D03*
X020500Y059750D03*
X021500Y059750D03*
X021500Y060750D03*
X022500Y060750D03*
X022500Y059750D03*
X023500Y059750D03*
X023500Y060750D03*
X024500Y060750D03*
X024500Y059750D03*
X025500Y059750D03*
X025500Y060750D03*
X026500Y060750D03*
X026500Y059750D03*
X027500Y059750D03*
X027500Y060750D03*
X028500Y060750D03*
X028500Y059750D03*
X029500Y059750D03*
X029500Y060750D03*
X030500Y060750D03*
X030500Y059750D03*
X031500Y059750D03*
X031500Y060750D03*
X032500Y059750D03*
X032500Y058750D03*
X032500Y057750D03*
X032500Y056750D03*
X031500Y056750D03*
X031500Y057750D03*
X031500Y058750D03*
X031500Y055750D03*
X031500Y054750D03*
X032500Y054750D03*
X032500Y055750D03*
X032500Y053750D03*
X032500Y052750D03*
X031500Y052750D03*
X031500Y053750D03*
X031500Y051750D03*
X031500Y050750D03*
X032500Y050750D03*
X032500Y051750D03*
X020500Y043250D03*
X020500Y031250D03*
X020500Y030250D03*
X020500Y029250D03*
X020500Y028250D03*
X020500Y027250D03*
X020500Y026250D03*
X020500Y025250D03*
X020500Y024250D03*
X020500Y023250D03*
X020500Y022250D03*
X020500Y019250D03*
X020500Y018250D03*
X020500Y017250D03*
X020500Y016250D03*
X020500Y015250D03*
X020500Y014250D03*
X020500Y013250D03*
X020500Y012250D03*
X020500Y011250D03*
X020500Y010250D03*
X028000Y030250D03*
X028000Y031250D03*
X009000Y057750D03*
X009000Y060750D03*
X006000Y060750D03*
X006000Y057750D03*
X037500Y062250D03*
X038500Y062250D03*
X039500Y062250D03*
X040500Y062250D03*
X040500Y065250D03*
X039500Y065250D03*
X038500Y065250D03*
X037500Y065250D03*
X069000Y047250D03*
X070500Y047250D03*
D12*
X068500Y044750D03*
X068500Y043750D03*
X067500Y043750D03*
X067500Y044750D03*
X066500Y044750D03*
X066500Y043750D03*
X065500Y043750D03*
X065500Y044750D03*
X065500Y042750D03*
X066500Y042750D03*
X067500Y042750D03*
X068500Y042750D03*
X058000Y052250D03*
X058000Y053250D03*
X057000Y053250D03*
X057000Y052250D03*
X056000Y052250D03*
X056000Y053250D03*
X055000Y053250D03*
X055000Y052250D03*
X054000Y052250D03*
X054000Y053250D03*
X054000Y057250D03*
X055000Y057250D03*
X055000Y058250D03*
X054000Y058250D03*
X056000Y058250D03*
X057000Y058250D03*
X058000Y058250D03*
X058000Y057250D03*
X057000Y057250D03*
X056000Y057250D03*
X055500Y061750D03*
X054500Y061750D03*
X054500Y064350D03*
X055500Y064350D03*
X056500Y064350D03*
X048000Y060750D03*
X047000Y060750D03*
X046000Y060750D03*
X042500Y062250D03*
X042500Y063250D03*
X042500Y064250D03*
X041500Y059250D03*
X041500Y058250D03*
X041500Y057250D03*
X041500Y056250D03*
X041500Y055250D03*
X041500Y054250D03*
X041500Y053250D03*
X041500Y052250D03*
X041500Y051250D03*
X041500Y050250D03*
X036500Y050250D03*
X036500Y051250D03*
X036500Y052250D03*
X036500Y053250D03*
X036500Y054250D03*
X036500Y055250D03*
X036500Y056250D03*
X036500Y057250D03*
X036500Y058250D03*
X036500Y059250D03*
X035000Y063000D03*
X034000Y063000D03*
X033000Y063000D03*
X033000Y065250D03*
X034000Y065250D03*
X035000Y065250D03*
X027000Y064750D03*
X026000Y064750D03*
X025000Y064750D03*
X025000Y065750D03*
X026000Y065750D03*
X027000Y065750D03*
X024000Y065750D03*
X023000Y065750D03*
X023000Y064750D03*
X024000Y064750D03*
X019000Y064750D03*
X019000Y065750D03*
X018000Y065750D03*
X017000Y065750D03*
X016000Y065750D03*
X016000Y064750D03*
X017000Y064750D03*
X018000Y064750D03*
X015000Y064750D03*
X015000Y065750D03*
X011000Y065750D03*
X010000Y065750D03*
X010000Y064750D03*
X011000Y064750D03*
X009000Y064750D03*
X009000Y065750D03*
X011000Y059750D03*
X011000Y058750D03*
X011000Y053750D03*
X011000Y052750D03*
X010000Y052750D03*
X010000Y053750D03*
X010000Y051750D03*
X010000Y050750D03*
X011000Y050750D03*
X011000Y051750D03*
X011000Y049750D03*
X011000Y048750D03*
X010000Y048750D03*
X010000Y049750D03*
X016000Y043750D03*
X017000Y043250D03*
X016000Y042750D03*
X016000Y041750D03*
X017000Y041250D03*
X017000Y042250D03*
X016000Y040750D03*
X016000Y039750D03*
X017000Y039250D03*
X017000Y040250D03*
X016000Y038750D03*
X016000Y037750D03*
X017000Y037250D03*
X017000Y036250D03*
X016000Y035750D03*
X016000Y036750D03*
X017000Y035250D03*
X017000Y034250D03*
X016000Y033750D03*
X016000Y034750D03*
X017000Y033250D03*
X017000Y032250D03*
X016000Y032750D03*
X017000Y031250D03*
X017000Y030250D03*
X016000Y029750D03*
X016000Y028750D03*
X017000Y029250D03*
X017000Y027750D03*
X017000Y026750D03*
X016000Y027750D03*
X017000Y025750D03*
X017000Y024750D03*
X017000Y023750D03*
X017000Y022750D03*
X016000Y022250D03*
X016000Y021250D03*
X017000Y020750D03*
X017000Y021750D03*
X016000Y020250D03*
X016000Y019250D03*
X017000Y018750D03*
X017000Y019750D03*
X016000Y018250D03*
X016000Y017250D03*
X017000Y016750D03*
X017000Y015750D03*
X016000Y015250D03*
X016000Y016250D03*
X017000Y014750D03*
X017000Y013750D03*
X016000Y013250D03*
X016000Y014250D03*
X017000Y012750D03*
X017000Y011750D03*
X016000Y011250D03*
X016000Y012250D03*
X017000Y010750D03*
X016000Y010250D03*
X013000Y005750D03*
X012000Y005750D03*
X011000Y005750D03*
X008500Y007750D03*
X008500Y008750D03*
X017000Y017750D03*
X016000Y030750D03*
X017000Y038250D03*
X055500Y038250D03*
X055500Y037250D03*
X055500Y036250D03*
X056500Y036250D03*
X056500Y037250D03*
X056500Y038250D03*
X056500Y039250D03*
X056500Y040250D03*
X055500Y040250D03*
X055500Y039250D03*
X055500Y041250D03*
X055500Y042250D03*
X056500Y042250D03*
X056500Y041250D03*
X056500Y043250D03*
X056500Y044250D03*
X055500Y044250D03*
X055500Y043250D03*
X055500Y035250D03*
X055500Y034250D03*
X056500Y034250D03*
X056500Y035250D03*
X056500Y033250D03*
X056500Y032250D03*
X055500Y032250D03*
X055500Y033250D03*
X055500Y031250D03*
X055500Y030250D03*
X056500Y030250D03*
X056500Y031250D03*
X056500Y029250D03*
X055500Y029250D03*
X055500Y024250D03*
X055500Y023250D03*
X056500Y023250D03*
X056500Y024250D03*
X056500Y022250D03*
X056500Y021250D03*
X055500Y021250D03*
X055500Y022250D03*
X055500Y020250D03*
X055500Y019250D03*
X056500Y019250D03*
X056500Y020250D03*
X056500Y018250D03*
X056500Y017250D03*
X055500Y017250D03*
X055500Y018250D03*
X055500Y016250D03*
X055500Y015250D03*
X056500Y015250D03*
X056500Y016250D03*
X056500Y014250D03*
X056500Y013250D03*
X055500Y013250D03*
X055500Y014250D03*
X055500Y012250D03*
X055500Y011250D03*
X056500Y011250D03*
X056500Y012250D03*
X056500Y010250D03*
X056500Y009250D03*
X055500Y009250D03*
X055500Y010250D03*
X061000Y006250D03*
X062000Y006250D03*
X062000Y005250D03*
X061000Y005250D03*
X063000Y005250D03*
X064000Y005250D03*
X065000Y005250D03*
X065000Y006250D03*
X064000Y006250D03*
X063000Y006250D03*
X067500Y008750D03*
X068500Y008750D03*
X068500Y009750D03*
X068500Y010750D03*
X067500Y010750D03*
X067500Y009750D03*
X067500Y011750D03*
X068500Y011750D03*
X068500Y012750D03*
X067500Y014250D03*
X067500Y015250D03*
X073500Y012750D03*
X073500Y011750D03*
X073500Y010750D03*
X073500Y009750D03*
X073500Y008750D03*
X066000Y023750D03*
X066000Y024750D03*
X066000Y025750D03*
X071860Y055470D03*
X073640Y055470D03*
X073640Y058030D03*
X073640Y059470D03*
X071860Y059470D03*
X071860Y058030D03*
X071860Y062030D03*
X073640Y062030D03*
D13*
X050750Y007500D03*
X050750Y006500D03*
X050750Y005500D03*
X049750Y005500D03*
X049750Y006500D03*
X049750Y007500D03*
X048750Y007500D03*
X048750Y006500D03*
X048750Y005500D03*
X047750Y005500D03*
X047750Y006500D03*
X047750Y007500D03*
X046750Y007500D03*
X046750Y006500D03*
X046750Y005500D03*
X045750Y005500D03*
X045750Y006500D03*
X045750Y007500D03*
X044750Y007500D03*
X044750Y006500D03*
X044750Y005500D03*
X043750Y005500D03*
X043750Y006500D03*
X043750Y007500D03*
X042750Y007500D03*
X042750Y006500D03*
X042750Y005500D03*
X041750Y005500D03*
X041750Y006500D03*
X041750Y007500D03*
X040750Y007500D03*
X040750Y006500D03*
X040750Y005500D03*
X039750Y005500D03*
X039750Y006500D03*
X039750Y007500D03*
X038750Y007500D03*
X038750Y006500D03*
X038750Y005500D03*
X037750Y005500D03*
X037750Y006500D03*
X037750Y007500D03*
X036750Y007500D03*
X036750Y006500D03*
X036750Y005500D03*
X035750Y005500D03*
X035750Y006500D03*
X035750Y007500D03*
X034750Y007500D03*
X034750Y006500D03*
X034750Y005500D03*
X033750Y005500D03*
X033750Y006500D03*
X033750Y007500D03*
X032750Y007500D03*
X032750Y006500D03*
X032750Y005500D03*
X031750Y005500D03*
X031750Y006500D03*
X031750Y007500D03*
X030750Y007500D03*
X030750Y006500D03*
X030750Y005500D03*
X029750Y005500D03*
X029750Y006500D03*
X029750Y007500D03*
X028750Y007500D03*
X028750Y006500D03*
X028750Y005500D03*
X027750Y005500D03*
X027750Y006500D03*
X027750Y007500D03*
X026750Y007500D03*
X026750Y006500D03*
X026750Y005500D03*
X025750Y005500D03*
X025750Y006500D03*
X025750Y007500D03*
X024750Y007500D03*
X024750Y006500D03*
X024750Y005500D03*
X023750Y005500D03*
X023750Y006500D03*
X023750Y007500D03*
X022750Y007500D03*
X022750Y006500D03*
X022750Y005500D03*
X021750Y005500D03*
X021750Y006500D03*
X021750Y007500D03*
X020750Y007500D03*
X020750Y006500D03*
X020750Y005500D03*
X019750Y005500D03*
X019750Y006500D03*
X019750Y007500D03*
X007500Y011750D03*
X007500Y012750D03*
X006500Y012750D03*
X006500Y011750D03*
X005500Y011750D03*
X005500Y012750D03*
X005500Y013750D03*
X005500Y014750D03*
X006500Y014750D03*
X006500Y013750D03*
X007500Y013750D03*
X007500Y014750D03*
X007500Y015750D03*
X007500Y016750D03*
X007500Y017750D03*
X006500Y017750D03*
X006500Y016750D03*
X006500Y015750D03*
X005500Y015750D03*
X005500Y016750D03*
X005500Y017750D03*
X005500Y018750D03*
X005500Y019750D03*
X006500Y019750D03*
X006500Y018750D03*
X007500Y018750D03*
X007500Y019750D03*
X007500Y020750D03*
X007500Y021750D03*
X006500Y021750D03*
X006500Y020750D03*
X005500Y020750D03*
X005500Y021750D03*
X005500Y022750D03*
X005500Y023750D03*
X006500Y023750D03*
X006500Y022750D03*
X007500Y022750D03*
X007500Y023750D03*
X007500Y024750D03*
X007500Y025750D03*
X006500Y025750D03*
X006500Y024750D03*
X005500Y024750D03*
X005500Y025750D03*
X005500Y026750D03*
X005500Y027750D03*
X006500Y027750D03*
X006500Y026750D03*
X007500Y026750D03*
X007500Y027750D03*
X007500Y028750D03*
X007500Y029750D03*
X007500Y030750D03*
X006500Y030750D03*
X006500Y029750D03*
X006500Y028750D03*
X005500Y028750D03*
X005500Y029750D03*
X005500Y030750D03*
X005500Y031750D03*
X005500Y032750D03*
X006500Y032750D03*
X006500Y031750D03*
X007500Y031750D03*
X007500Y032750D03*
X007500Y033750D03*
X007500Y034750D03*
X006500Y034750D03*
X006500Y033750D03*
X005500Y033750D03*
X005500Y034750D03*
X005500Y035750D03*
X005500Y036750D03*
X006500Y036750D03*
X006500Y035750D03*
X007500Y035750D03*
X007500Y036750D03*
X007500Y037750D03*
X007500Y038750D03*
X006500Y038750D03*
X006500Y037750D03*
X005500Y037750D03*
X005500Y038750D03*
X005500Y039750D03*
X005500Y040750D03*
X006500Y040750D03*
X006500Y039750D03*
X007500Y039750D03*
X007500Y040750D03*
X007500Y041750D03*
X007500Y042750D03*
X006500Y042750D03*
X006500Y041750D03*
X005500Y041750D03*
X005500Y042750D03*
D14*
X059000Y061250D03*
X059000Y062250D03*
X059000Y063250D03*
D15*
X054500Y062942D03*
X054500Y063808D03*
D16*
X055500Y060750D03*
X051500Y060750D03*
X066000Y055250D03*
X070000Y055250D03*
D17*
X071500Y043094D03*
X071500Y042406D03*
X072500Y042406D03*
X072500Y043094D03*
X073500Y043094D03*
X073500Y042406D03*
X073500Y039094D03*
X073500Y038406D03*
X072750Y038406D03*
X072750Y039094D03*
X066000Y040406D03*
X066000Y041094D03*
X064250Y041094D03*
X064250Y040406D03*
X050500Y058406D03*
X050500Y059094D03*
X049500Y059094D03*
X049500Y058406D03*
X054500Y065406D03*
X054500Y066094D03*
X056500Y066094D03*
X056500Y065406D03*
X028500Y047969D03*
X028500Y047281D03*
X026000Y054406D03*
X026000Y055094D03*
X026000Y058406D03*
X026000Y059094D03*
X014000Y030844D03*
X014000Y030156D03*
X014000Y029094D03*
X014000Y028406D03*
X009250Y027844D03*
X009250Y027156D03*
X023500Y020844D03*
X023500Y020156D03*
X024250Y020156D03*
X024250Y020844D03*
X069500Y014344D03*
X069500Y013656D03*
X070250Y013656D03*
X070250Y014344D03*
X071750Y014344D03*
X071750Y013656D03*
X072500Y013656D03*
X072500Y014344D03*
D18*
X051000Y062819D03*
X049110Y064000D03*
X051000Y065181D03*
D19*
X053000Y058210D03*
X053000Y057540D03*
X050500Y053835D03*
X050500Y053165D03*
X050500Y050585D03*
X050500Y049915D03*
X043000Y059415D03*
X043000Y060085D03*
X022750Y053085D03*
X022750Y052415D03*
X067000Y048585D03*
X067000Y047915D03*
X068000Y047915D03*
X068000Y048585D03*
X071500Y048085D03*
X071500Y047415D03*
X072500Y047415D03*
X072500Y048085D03*
D20*
X053344Y045750D03*
X052656Y045750D03*
X052656Y045000D03*
X053344Y045000D03*
X044844Y045250D03*
X044844Y045875D03*
X044156Y045875D03*
X044156Y045250D03*
X037344Y045250D03*
X037344Y045875D03*
X036656Y045875D03*
X036656Y045250D03*
X030844Y051750D03*
X030156Y051750D03*
X030344Y054250D03*
X029656Y054250D03*
X029656Y055250D03*
X030344Y055250D03*
X030344Y056250D03*
X029656Y056250D03*
X033156Y054750D03*
X033844Y054750D03*
X033844Y059750D03*
X033156Y059750D03*
X040156Y060250D03*
X040844Y060250D03*
X040844Y061000D03*
X040156Y061000D03*
X043156Y062250D03*
X043844Y062250D03*
X043844Y063250D03*
X043156Y063250D03*
X044781Y058000D03*
X045469Y058000D03*
X045469Y057250D03*
X044781Y057250D03*
X028969Y044750D03*
X028281Y044750D03*
X028281Y044000D03*
X028969Y044000D03*
X024344Y044125D03*
X023656Y044125D03*
X023656Y044875D03*
X024344Y044875D03*
G36*
X020211Y048760D02*
X020502Y049051D01*
X020801Y048752D01*
X020510Y048461D01*
X020211Y048760D01*
G37*
G36*
X020699Y049248D02*
X020990Y049539D01*
X021289Y049240D01*
X020998Y048949D01*
X020699Y049248D01*
G37*
X019594Y053750D03*
X018906Y053750D03*
X022031Y058750D03*
X022719Y058750D03*
X009344Y056750D03*
X009344Y056125D03*
X009344Y055500D03*
X008656Y055500D03*
X008656Y056125D03*
X008656Y056750D03*
X027156Y033500D03*
X027844Y033500D03*
X027844Y032750D03*
X027156Y032750D03*
X027156Y032000D03*
X027844Y032000D03*
X024344Y032000D03*
X023656Y032000D03*
X023656Y032750D03*
X024344Y032750D03*
X036031Y025000D03*
X036719Y025000D03*
X036719Y024250D03*
X036031Y024250D03*
X045156Y025000D03*
X045844Y025000D03*
X045844Y025750D03*
X045156Y025750D03*
X052781Y025750D03*
X053469Y025750D03*
X053469Y025000D03*
X052781Y025000D03*
X072781Y024750D03*
X073469Y024750D03*
X073469Y024000D03*
X072781Y024000D03*
X026844Y020000D03*
X026156Y020000D03*
X026156Y019250D03*
X026844Y019250D03*
D21*
X070250Y012274D03*
X070750Y012274D03*
X071250Y012274D03*
X071750Y012274D03*
X071750Y010226D03*
X071250Y010226D03*
X070750Y010226D03*
X070250Y010226D03*
D22*
X040024Y063000D03*
X040024Y063500D03*
X040024Y064000D03*
X040024Y064500D03*
X037976Y064500D03*
X037976Y064000D03*
X037976Y063500D03*
X037976Y063000D03*
X008524Y060000D03*
X008524Y059500D03*
X008524Y059000D03*
X008524Y058500D03*
X006476Y058500D03*
X006476Y059000D03*
X006476Y059500D03*
X006476Y060000D03*
D23*
X025165Y050750D03*
X025835Y050750D03*
X037165Y060188D03*
X037835Y060188D03*
X037835Y061125D03*
X037165Y061125D03*
X043165Y064250D03*
X043835Y064250D03*
X039335Y055250D03*
X038665Y055250D03*
X055665Y049000D03*
X056335Y049000D03*
X067165Y056750D03*
X067835Y056750D03*
X067835Y057750D03*
X067165Y057750D03*
X067165Y058750D03*
X067835Y058750D03*
X067835Y059750D03*
X067165Y059750D03*
X067165Y060750D03*
X067835Y060750D03*
X067835Y061750D03*
X067165Y061750D03*
X067165Y062750D03*
X067835Y062750D03*
X067835Y063750D03*
X067165Y063750D03*
X067165Y064750D03*
X067835Y064750D03*
X067835Y065750D03*
X067165Y065750D03*
D24*
X025624Y047512D03*
X025250Y047512D03*
X024876Y047512D03*
X024876Y046488D03*
X025250Y046488D03*
X025624Y046488D03*
X071626Y018762D03*
X072000Y018762D03*
X072374Y018762D03*
X072374Y017738D03*
X072000Y017738D03*
X071626Y017738D03*
D25*
X025183Y054750D03*
X024317Y054376D03*
X024317Y055124D03*
D26*
X025171Y056250D03*
X027829Y056250D03*
X027829Y053250D03*
X025171Y053250D03*
X054171Y059750D03*
X056829Y059750D03*
X014579Y009000D03*
X011921Y009000D03*
D27*
X026500Y025921D03*
X026500Y028579D03*
X047875Y040921D03*
X047875Y043579D03*
X062500Y062421D03*
X062500Y065079D03*
X063500Y011579D03*
X063500Y008921D03*
D28*
X047484Y065073D03*
X045516Y065073D03*
D29*
X034887Y052874D03*
X034887Y052500D03*
X034887Y052126D03*
X033863Y052126D03*
X033863Y052500D03*
X033863Y052874D03*
D30*
X033375Y052875D03*
X033375Y052500D03*
X033375Y052125D03*
X035375Y052125D03*
X035375Y052500D03*
X035375Y052875D03*
X036000Y053750D03*
X035250Y054250D03*
X034750Y054750D03*
X034250Y054750D03*
X034000Y056250D03*
X035000Y056250D03*
X034750Y057750D03*
X035750Y058375D03*
X034125Y059750D03*
X035250Y060750D03*
X036500Y061125D03*
X036500Y060188D03*
X038313Y060188D03*
X039250Y060188D03*
X039250Y058250D03*
X039250Y057750D03*
X038750Y057125D03*
X039250Y055750D03*
X039750Y055250D03*
X040000Y053750D03*
X038500Y052750D03*
X038250Y053250D03*
X038750Y052250D03*
X039000Y051750D03*
X039250Y051250D03*
X039500Y050750D03*
X039750Y050250D03*
X042750Y053750D03*
X043000Y054250D03*
X042250Y055250D03*
X042250Y057250D03*
X042750Y057250D03*
X043000Y058250D03*
X044625Y058500D03*
X045750Y057250D03*
X046000Y056750D03*
X046000Y055750D03*
X047000Y056750D03*
X047500Y056250D03*
X044250Y055250D03*
X044500Y054250D03*
X044750Y053750D03*
X044500Y052750D03*
X047500Y051250D03*
X048000Y049500D03*
X049500Y047500D03*
X049750Y047250D03*
X050000Y047000D03*
X049250Y045500D03*
X048750Y045750D03*
X047875Y044500D03*
X049000Y044250D03*
X050250Y045000D03*
X051500Y045625D03*
X053250Y044250D03*
X051875Y042750D03*
X051500Y042250D03*
X053250Y042250D03*
X056750Y040750D03*
X058000Y041250D03*
X059500Y039750D03*
X060250Y041000D03*
X060500Y041500D03*
X060000Y041750D03*
X061250Y042500D03*
X061500Y042250D03*
X061000Y043250D03*
X059750Y044250D03*
X059250Y046000D03*
X059000Y046250D03*
X058500Y046500D03*
X059000Y047000D03*
X058750Y047250D03*
X058500Y047500D03*
X058250Y048250D03*
X059250Y048000D03*
X059500Y047750D03*
X059750Y048250D03*
X059500Y049750D03*
X059250Y050750D03*
X060000Y051250D03*
X061500Y050750D03*
X062250Y051750D03*
X063000Y050750D03*
X064750Y051750D03*
X065500Y051000D03*
X065250Y050250D03*
X067000Y050250D03*
X068000Y049250D03*
X067000Y047500D03*
X068000Y046500D03*
X068000Y045250D03*
X068750Y044250D03*
X069250Y043750D03*
X069250Y045625D03*
X070000Y047750D03*
X071500Y048500D03*
X071750Y048750D03*
X071500Y051250D03*
X072000Y051250D03*
X071750Y052250D03*
X072250Y052250D03*
X071500Y053250D03*
X072250Y054000D03*
X072000Y054250D03*
X071500Y054750D03*
X069750Y054500D03*
X069500Y056000D03*
X066750Y057750D03*
X066750Y058750D03*
X066750Y059750D03*
X066750Y060750D03*
X066750Y061750D03*
X066750Y062750D03*
X066750Y063750D03*
X066750Y064750D03*
X066750Y065750D03*
X062500Y066000D03*
X060500Y064750D03*
X060250Y063750D03*
X059500Y064250D03*
X059000Y064750D03*
X058500Y064250D03*
X058000Y064750D03*
X057500Y064250D03*
X058000Y063750D03*
X057000Y063750D03*
X056000Y063750D03*
X057500Y065250D03*
X058000Y065750D03*
X058500Y065250D03*
X059000Y065750D03*
X059500Y065250D03*
X060000Y061750D03*
X059750Y060750D03*
X059250Y060250D03*
X059500Y059750D03*
X060250Y057250D03*
X058750Y055750D03*
X058000Y055250D03*
X057000Y055000D03*
X056000Y056250D03*
X055500Y055750D03*
X055000Y056500D03*
X053250Y055750D03*
X052250Y056500D03*
X052250Y057250D03*
X050500Y054250D03*
X050000Y053250D03*
X050500Y051250D03*
X050500Y049250D03*
X050750Y049000D03*
X051000Y048750D03*
X052500Y050750D03*
X052500Y053250D03*
X055000Y050750D03*
X056250Y049500D03*
X057250Y050250D03*
X058000Y049500D03*
X057750Y046750D03*
X056000Y045250D03*
X053750Y048500D03*
X055000Y049000D03*
X058750Y053750D03*
X058000Y056250D03*
X062000Y054750D03*
X063000Y055000D03*
X063250Y056000D03*
X063250Y057750D03*
X063000Y058750D03*
X062500Y061500D03*
X055500Y066000D03*
X052000Y066250D03*
X052000Y065250D03*
X051000Y066250D03*
X050000Y066250D03*
X050000Y065250D03*
X050000Y064250D03*
X051000Y064250D03*
X052000Y064250D03*
X046000Y063938D03*
X045000Y063938D03*
X044500Y064625D03*
X044500Y065500D03*
X045000Y066250D03*
X046000Y066250D03*
X044313Y063250D03*
X040938Y063313D03*
X039000Y064313D03*
X036313Y064500D03*
X031500Y063250D03*
X031000Y063000D03*
X030500Y062750D03*
X030000Y062500D03*
X029500Y062250D03*
X028500Y062000D03*
X028000Y061750D03*
X027000Y061500D03*
X026000Y061250D03*
X027000Y059750D03*
X027000Y058250D03*
X026000Y057500D03*
X024375Y056250D03*
X023875Y055125D03*
X024125Y053875D03*
X024375Y053250D03*
X022750Y053500D03*
X021750Y054250D03*
X022000Y052250D03*
X023500Y050250D03*
X024500Y050750D03*
X026500Y051250D03*
X028625Y053250D03*
X029250Y054250D03*
X029250Y055250D03*
X029250Y056250D03*
X028625Y056250D03*
X027125Y055000D03*
X027125Y054375D03*
X026875Y053875D03*
X026125Y053875D03*
X029750Y051750D03*
X030750Y054250D03*
X030750Y055250D03*
X030750Y056250D03*
X038000Y054250D03*
X033500Y048750D03*
X032000Y048000D03*
X031000Y047750D03*
X030500Y047500D03*
X030000Y047250D03*
X029500Y047000D03*
X029000Y046750D03*
X028500Y046875D03*
X028000Y046500D03*
X027500Y046250D03*
X026500Y046000D03*
X026000Y045750D03*
X025625Y046000D03*
X025250Y046000D03*
X024875Y046000D03*
X024500Y045750D03*
X024000Y045750D03*
X023500Y045750D03*
X022750Y044750D03*
X024375Y043250D03*
X029000Y043250D03*
X031000Y043750D03*
X033250Y041750D03*
X033000Y040750D03*
X033500Y040250D03*
X033750Y039750D03*
X032750Y039750D03*
X032500Y038750D03*
X032000Y037750D03*
X032250Y036750D03*
X034250Y036750D03*
X034250Y035750D03*
X035500Y034750D03*
X032750Y032750D03*
X032250Y032250D03*
X033250Y031750D03*
X032000Y031250D03*
X033000Y030750D03*
X030750Y030250D03*
X030500Y029750D03*
X027000Y031000D03*
X026500Y029750D03*
X024250Y031000D03*
X022750Y029750D03*
X021250Y029250D03*
X021500Y028250D03*
X021750Y027250D03*
X022000Y026250D03*
X025500Y023750D03*
X026000Y023750D03*
X026500Y024250D03*
X025500Y022750D03*
X026000Y022250D03*
X026250Y020625D03*
X027500Y021250D03*
X028750Y020750D03*
X029750Y020250D03*
X029250Y019250D03*
X028500Y018250D03*
X029000Y016750D03*
X029500Y017000D03*
X030000Y017250D03*
X030000Y016250D03*
X029000Y015750D03*
X028750Y016250D03*
X028750Y015250D03*
X029000Y014250D03*
X029750Y013750D03*
X029250Y012750D03*
X029000Y012250D03*
X028500Y011750D03*
X028750Y011250D03*
X029500Y010750D03*
X030000Y010250D03*
X030500Y010250D03*
X030750Y010750D03*
X031000Y011250D03*
X032250Y011750D03*
X032750Y012250D03*
X032500Y012750D03*
X033000Y013750D03*
X033750Y014750D03*
X034250Y015750D03*
X035500Y014750D03*
X034500Y017750D03*
X034750Y018250D03*
X034000Y018750D03*
X033750Y019750D03*
X033500Y020250D03*
X033250Y021750D03*
X034750Y021250D03*
X035000Y020750D03*
X035250Y022250D03*
X036125Y025500D03*
X038750Y023750D03*
X042000Y024250D03*
X042750Y023250D03*
X042250Y022750D03*
X042500Y022250D03*
X043500Y023750D03*
X045875Y026250D03*
X046750Y025125D03*
X049000Y024250D03*
X049250Y025125D03*
X050250Y025750D03*
X050000Y026000D03*
X049750Y026250D03*
X049500Y026500D03*
X049250Y026750D03*
X050500Y027000D03*
X050750Y027250D03*
X051000Y027500D03*
X048500Y029750D03*
X048250Y030250D03*
X048000Y030750D03*
X047750Y031250D03*
X047500Y031750D03*
X047250Y032250D03*
X047000Y032750D03*
X046000Y033750D03*
X045500Y034250D03*
X044500Y036250D03*
X042500Y036250D03*
X041750Y036750D03*
X042750Y037250D03*
X043000Y038250D03*
X043250Y039250D03*
X044000Y042250D03*
X043750Y042750D03*
X044250Y043000D03*
X043500Y044250D03*
X044000Y044625D03*
X045500Y045000D03*
X046000Y045250D03*
X046000Y043625D03*
X042000Y043750D03*
X038500Y043750D03*
X036500Y044500D03*
X034750Y043750D03*
X034250Y042750D03*
X035250Y042250D03*
X035000Y041750D03*
X034750Y041250D03*
X035000Y040750D03*
X035750Y041750D03*
X034000Y038750D03*
X034500Y037750D03*
X030750Y038750D03*
X030000Y038250D03*
X029250Y037250D03*
X028750Y036250D03*
X028500Y035750D03*
X029000Y034750D03*
X029750Y035250D03*
X030250Y034250D03*
X029500Y033750D03*
X032500Y033750D03*
X030500Y039750D03*
X022250Y033250D03*
X021500Y033750D03*
X021250Y032750D03*
X021250Y035750D03*
X021500Y036750D03*
X018500Y037250D03*
X014250Y036750D03*
X014000Y035750D03*
X013750Y034750D03*
X010750Y033750D03*
X013500Y031250D03*
X013500Y030750D03*
X013250Y030250D03*
X014000Y029750D03*
X014000Y031500D03*
X014000Y027750D03*
X015000Y026750D03*
X011250Y025750D03*
X011000Y026750D03*
X009250Y028250D03*
X009250Y028750D03*
X011500Y022750D03*
X011750Y020750D03*
X012000Y019750D03*
X012250Y018750D03*
X012500Y017750D03*
X012750Y016750D03*
X013000Y015750D03*
X014750Y014250D03*
X014500Y013250D03*
X018500Y015250D03*
X019500Y016250D03*
X020000Y016750D03*
X021000Y017750D03*
X019500Y019750D03*
X020000Y020750D03*
X021000Y021750D03*
X017500Y020750D03*
X017750Y019750D03*
X018000Y018750D03*
X024750Y020750D03*
X027000Y018750D03*
X027250Y019250D03*
X025750Y017250D03*
X026000Y016250D03*
X026250Y015250D03*
X027000Y015750D03*
X027500Y015250D03*
X026500Y014250D03*
X026750Y013250D03*
X027000Y012250D03*
X027250Y011250D03*
X027500Y010250D03*
X030250Y009750D03*
X038250Y017000D03*
X038000Y018750D03*
X041500Y018250D03*
X041250Y017250D03*
X041000Y016250D03*
X040750Y015250D03*
X040500Y014250D03*
X040250Y013250D03*
X043250Y014750D03*
X043000Y016750D03*
X041750Y019250D03*
X048750Y014750D03*
X051750Y022000D03*
X053750Y022000D03*
X054250Y023500D03*
X054750Y023750D03*
X053500Y024250D03*
X054250Y025250D03*
X058750Y023250D03*
X059000Y022750D03*
X059000Y022250D03*
X059250Y021750D03*
X058500Y021250D03*
X061250Y021750D03*
X061500Y020250D03*
X062250Y018750D03*
X063500Y019250D03*
X063250Y019750D03*
X063250Y020750D03*
X063750Y021750D03*
X064500Y018750D03*
X064750Y017750D03*
X062500Y017750D03*
X062750Y015750D03*
X063000Y014750D03*
X064250Y014000D03*
X064000Y013250D03*
X063500Y012500D03*
X062000Y012750D03*
X061500Y013250D03*
X061125Y014000D03*
X059000Y013750D03*
X058250Y014250D03*
X058500Y014750D03*
X057000Y013750D03*
X057000Y012750D03*
X058750Y012750D03*
X060750Y010750D03*
X061125Y009750D03*
X061500Y008750D03*
X063500Y008000D03*
X066500Y007500D03*
X066750Y007000D03*
X070250Y009125D03*
X071250Y010250D03*
X070750Y011250D03*
X070250Y012750D03*
X070750Y013000D03*
X071250Y013000D03*
X071750Y013000D03*
X073000Y014250D03*
X073000Y014750D03*
X072375Y015000D03*
X071250Y015500D03*
X070750Y015250D03*
X069750Y015500D03*
X069500Y015250D03*
X068750Y015250D03*
X068000Y014750D03*
X067750Y015750D03*
X068500Y016750D03*
X068000Y017750D03*
X067500Y017250D03*
X068250Y018750D03*
X069000Y019750D03*
X068500Y021250D03*
X068750Y022750D03*
X068000Y022750D03*
X068000Y024250D03*
X067250Y025250D03*
X066500Y024250D03*
X065000Y025750D03*
X064750Y026000D03*
X065000Y026250D03*
X064500Y026250D03*
X064250Y026500D03*
X064000Y026750D03*
X063750Y027500D03*
X065500Y028750D03*
X064750Y031250D03*
X063500Y031750D03*
X063250Y032750D03*
X062750Y033875D03*
X062500Y034750D03*
X061750Y035750D03*
X061000Y036250D03*
X062250Y036750D03*
X062000Y037750D03*
X061250Y039500D03*
X063000Y039750D03*
X063500Y039250D03*
X064250Y040000D03*
X064750Y038750D03*
X065500Y040750D03*
X066750Y041500D03*
X067250Y041750D03*
X067750Y042250D03*
X068500Y041250D03*
X068750Y041000D03*
X069250Y042000D03*
X069250Y039250D03*
X069250Y037750D03*
X069250Y037000D03*
X069500Y036750D03*
X069250Y035750D03*
X069750Y035750D03*
X068500Y035250D03*
X067500Y035250D03*
X068000Y033750D03*
X068500Y033750D03*
X068500Y032750D03*
X069250Y031750D03*
X068000Y030750D03*
X071750Y031750D03*
X072000Y032250D03*
X072250Y032750D03*
X072250Y033250D03*
X072250Y034750D03*
X072750Y035750D03*
X072500Y036250D03*
X072875Y039625D03*
X072500Y046000D03*
X071500Y046250D03*
X065500Y048000D03*
X065250Y046500D03*
X064500Y046250D03*
X063500Y046000D03*
X063250Y047750D03*
X062750Y048750D03*
X062000Y052750D03*
X062500Y053750D03*
X063500Y042750D03*
X064250Y042000D03*
X059000Y038750D03*
X057250Y038750D03*
X057250Y038250D03*
X057750Y037250D03*
X057500Y036750D03*
X057250Y036250D03*
X057000Y035750D03*
X057000Y034750D03*
X057750Y034750D03*
X058250Y034250D03*
X058000Y033750D03*
X057000Y033750D03*
X057000Y032750D03*
X057000Y031750D03*
X058000Y031750D03*
X057750Y030750D03*
X057500Y030250D03*
X057000Y030750D03*
X058500Y030750D03*
X059250Y031750D03*
X059500Y033250D03*
X060500Y033000D03*
X060750Y033500D03*
X061250Y032250D03*
X062000Y031250D03*
X061500Y029750D03*
X061750Y029250D03*
X059250Y028000D03*
X065500Y033750D03*
X071750Y029250D03*
X072000Y028750D03*
X072250Y028250D03*
X071250Y026000D03*
X072875Y025375D03*
X070000Y024750D03*
X072000Y020250D03*
X072000Y019375D03*
X072500Y019375D03*
X071500Y019375D03*
X071250Y018250D03*
X072750Y018250D03*
X072375Y016750D03*
X072000Y016750D03*
X071500Y016750D03*
X069000Y014250D03*
X065000Y013750D03*
X054500Y007000D03*
X041250Y029750D03*
X041000Y030250D03*
X040750Y030750D03*
X040500Y031250D03*
X040250Y031750D03*
X040000Y032250D03*
X039750Y032750D03*
X039500Y033750D03*
X041500Y033250D03*
X041750Y034250D03*
X042000Y035250D03*
X047875Y040000D03*
X048750Y034750D03*
X053750Y034250D03*
X072500Y030750D03*
X072750Y031250D03*
X031188Y063750D03*
X030875Y064750D03*
X029188Y064250D03*
X028875Y064750D03*
X028000Y064750D03*
X028000Y063750D03*
X022750Y058375D03*
X018500Y053750D03*
X020125Y048375D03*
X020000Y046250D03*
X025250Y048000D03*
X025625Y048000D03*
X011750Y054750D03*
X009500Y054750D03*
X009125Y059000D03*
X009125Y059500D03*
X012500Y062750D03*
X012750Y062500D03*
X013000Y062250D03*
X013250Y062000D03*
X013500Y061750D03*
X013750Y061500D03*
X012250Y063000D03*
X012000Y063250D03*
X007750Y048250D03*
X010000Y046250D03*
X008500Y044750D03*
X007750Y044750D03*
X010500Y043750D03*
X030000Y022250D03*
X015500Y009000D03*
X011000Y009000D03*
D31*
X022750Y007500D02*
X022750Y029750D01*
X022750Y044750D01*
X023656Y044875D02*
X023656Y044125D01*
X023656Y043406D01*
X023500Y043250D01*
X024344Y043281D02*
X024344Y044125D01*
X024344Y044875D01*
X024344Y043281D02*
X024375Y043250D01*
X028000Y043250D02*
X028281Y043531D01*
X028281Y044000D01*
X028281Y044750D01*
X028969Y044750D02*
X028969Y044000D01*
X028969Y043281D01*
X029000Y043250D01*
X028500Y046875D02*
X028500Y047281D01*
X028500Y047969D02*
X028500Y048750D01*
X029750Y051750D02*
X030156Y051750D01*
X030844Y051750D02*
X031500Y051750D01*
X030750Y054250D02*
X030344Y054250D01*
X029656Y054250D02*
X029250Y054250D01*
X029250Y055250D02*
X029656Y055250D01*
X030344Y055250D02*
X030750Y055250D01*
X030750Y056250D02*
X030344Y056250D01*
X029656Y056250D02*
X029250Y056250D01*
X028625Y056250D02*
X027829Y056250D01*
X027031Y055094D02*
X026000Y055094D01*
X026000Y054406D02*
X025528Y054406D01*
X025183Y054750D01*
X026000Y054406D02*
X027094Y054406D01*
X027125Y054375D01*
X027125Y055000D02*
X027031Y055094D01*
X025171Y056250D02*
X024375Y056250D01*
X024316Y055125D02*
X023875Y055125D01*
X024316Y055125D02*
X024317Y055124D01*
X024375Y053250D02*
X025171Y053250D01*
X027829Y053250D02*
X028625Y053250D01*
X032500Y054750D02*
X033156Y054750D01*
X033844Y054750D02*
X034250Y054750D01*
X034125Y059750D02*
X033844Y059750D01*
X033156Y059750D02*
X032500Y059750D01*
X033500Y064750D02*
X030875Y064750D01*
X028875Y064750D01*
X028000Y064750D01*
X025000Y064750D02*
X025000Y065750D01*
X025500Y060750D02*
X026000Y060250D01*
X026000Y059094D01*
X026000Y058406D02*
X026000Y057500D01*
X022750Y058375D02*
X022719Y058406D01*
X022719Y058750D01*
X022031Y058750D02*
X021500Y058750D01*
X020500Y053750D02*
X019594Y053750D01*
X018906Y053750D02*
X018500Y053750D01*
X021500Y049750D02*
X020994Y049244D01*
X020506Y048756D02*
X020125Y048375D01*
X011000Y048250D02*
X009250Y046500D01*
X009250Y028750D01*
X008000Y042250D02*
X006000Y042250D01*
X005500Y042750D01*
X008000Y042250D02*
X008500Y042750D01*
X008500Y044750D01*
X007750Y044750D02*
X007750Y048250D01*
X007750Y058250D01*
X008000Y058500D01*
X008524Y058500D01*
X010750Y058500D01*
X011000Y058750D01*
X011000Y059750D02*
X010750Y060000D01*
X008524Y060000D01*
X008524Y060274D01*
X009000Y060750D01*
X008524Y059000D02*
X008500Y059000D01*
X006750Y058500D02*
X006500Y058500D01*
X006500Y054750D01*
X005500Y053750D01*
X008500Y054750D02*
X008656Y054906D01*
X008656Y055500D01*
X008656Y056125D01*
X008656Y056750D01*
X009344Y056750D02*
X009344Y056125D01*
X009344Y055500D01*
X009344Y054906D01*
X009500Y054750D01*
X011000Y053750D02*
X011000Y052750D01*
X011000Y051750D01*
X011000Y050750D01*
X011000Y049750D01*
X011000Y048750D01*
X011000Y048250D01*
X006500Y058500D02*
X006476Y058500D01*
X033500Y064750D02*
X034000Y065250D01*
X034750Y064500D01*
X036313Y064500D01*
X037976Y064500D01*
X042000Y063750D02*
X042000Y061250D01*
X041750Y061000D01*
X040844Y061000D01*
X042500Y062250D02*
X043156Y062250D01*
X043844Y062250D02*
X043844Y063250D01*
X043844Y063593D01*
X043688Y063750D01*
X043250Y063750D01*
X043188Y063813D01*
X043188Y064228D01*
X043165Y064250D02*
X042500Y064250D01*
X042000Y063750D01*
X042500Y063250D02*
X043156Y063250D01*
X053000Y058210D02*
X053960Y058210D01*
X054000Y058250D01*
X053710Y057540D02*
X053000Y057540D01*
X053710Y057540D02*
X054000Y057250D01*
X055000Y057250D02*
X055500Y056750D01*
X055500Y055750D01*
X055000Y057250D02*
X056000Y057250D01*
X057000Y057250D02*
X058000Y057250D01*
X058000Y056250D01*
X058750Y055750D02*
X058750Y053750D01*
X058000Y058250D02*
X057000Y058250D01*
X056000Y058250D02*
X055000Y058250D01*
X054500Y064375D02*
X054500Y065406D01*
X054500Y066094D02*
X055468Y066094D01*
X055500Y066000D01*
X055532Y066094D01*
X056500Y066094D01*
X064000Y064750D02*
X064500Y064750D01*
X065500Y065750D01*
X066000Y065750D01*
X066750Y065750D02*
X067165Y065750D01*
X067835Y065750D02*
X069000Y065750D01*
X069000Y064750D02*
X067835Y064750D01*
X067165Y064750D02*
X066750Y064750D01*
X066000Y064750D02*
X065500Y064750D01*
X064500Y063750D01*
X064000Y063750D01*
X064000Y062750D02*
X064500Y062750D01*
X065500Y063750D01*
X066000Y063750D01*
X066750Y063750D02*
X067165Y063750D01*
X067835Y063750D02*
X069000Y063750D01*
X069000Y062750D02*
X067835Y062750D01*
X067165Y062750D02*
X066750Y062750D01*
X066000Y062750D02*
X065500Y062750D01*
X064500Y061750D01*
X064000Y061750D01*
X064000Y060750D02*
X064500Y060750D01*
X065500Y061750D01*
X066000Y061750D01*
X066750Y061750D02*
X067165Y061750D01*
X067835Y061750D02*
X069000Y061750D01*
X069000Y060750D02*
X067835Y060750D01*
X067165Y060750D02*
X066750Y060750D01*
X066000Y060750D02*
X065500Y060750D01*
X064500Y059750D01*
X064000Y059750D01*
X064000Y058750D02*
X064500Y058750D01*
X065500Y059750D01*
X066000Y059750D01*
X066750Y059750D02*
X067165Y059750D01*
X067835Y059750D02*
X069000Y059750D01*
X069000Y058750D02*
X067835Y058750D01*
X067165Y058750D02*
X066750Y058750D01*
X066000Y058750D02*
X065500Y058750D01*
X064500Y057750D01*
X064000Y057750D01*
X066750Y057750D02*
X067165Y057750D01*
X067835Y057750D02*
X069000Y057750D01*
X069000Y056750D02*
X067835Y056750D01*
X066000Y055250D02*
X066000Y053250D01*
X064000Y053250D02*
X064000Y054250D01*
X071500Y054750D02*
X071500Y053250D01*
X071250Y044250D02*
X070500Y044250D01*
X071250Y044250D02*
X071500Y044000D01*
X071500Y043094D01*
X072500Y043094D01*
X072500Y042406D02*
X071500Y042406D01*
X072500Y042406D02*
X072500Y041500D01*
X072750Y041250D01*
X073500Y041250D01*
X072875Y039625D02*
X072750Y039500D01*
X072750Y039094D01*
X073500Y039094D01*
X073500Y038406D02*
X072750Y038406D01*
X073500Y038406D02*
X073500Y037750D01*
X066000Y039750D02*
X066000Y040406D01*
X065500Y040750D02*
X065500Y041000D01*
X065594Y041094D01*
X066000Y041094D01*
X064344Y041094D02*
X064250Y041094D01*
X064250Y041000D02*
X064250Y042000D01*
X064344Y041094D02*
X064250Y041000D01*
X064250Y040406D02*
X064250Y040000D01*
X059250Y031750D02*
X059250Y028000D01*
X053469Y025750D02*
X053469Y025000D01*
X053469Y024281D01*
X053500Y024250D01*
X052781Y024531D02*
X052781Y025000D01*
X052781Y025750D01*
X052781Y024531D02*
X052500Y024250D01*
X045844Y025000D02*
X045844Y025750D01*
X045844Y026219D01*
X045875Y026250D01*
X045156Y025750D02*
X045156Y025000D01*
X045156Y024406D01*
X045000Y024250D01*
X037500Y024250D02*
X036719Y024250D01*
X036719Y025000D01*
X036031Y025000D02*
X036031Y024250D01*
X036031Y025000D02*
X036031Y025406D01*
X036125Y025500D01*
X028000Y031250D02*
X027844Y031406D01*
X027844Y032000D01*
X027156Y032000D02*
X027156Y031156D01*
X027000Y031000D01*
X027156Y032000D02*
X027156Y032750D01*
X027156Y033500D01*
X027844Y033500D02*
X027844Y032750D01*
X024344Y032750D02*
X024344Y032000D01*
X024344Y031094D01*
X024250Y031000D01*
X023656Y031406D02*
X023656Y032000D01*
X023656Y032750D01*
X023656Y031406D02*
X023500Y031250D01*
X023500Y020844D02*
X024250Y020844D01*
X024250Y020156D02*
X023500Y020156D01*
X026156Y020000D02*
X026156Y019250D01*
X026844Y019250D02*
X026844Y020000D01*
X026156Y020000D02*
X026156Y020531D01*
X026250Y020625D01*
X026844Y019250D02*
X027250Y019250D01*
X037500Y044250D02*
X037344Y044406D01*
X037344Y045250D01*
X037344Y045875D01*
X036656Y045875D02*
X036656Y045250D01*
X036656Y044656D01*
X036500Y044500D01*
X044000Y044625D02*
X044156Y044781D01*
X044156Y045875D01*
X044156Y045250D01*
X044844Y045250D02*
X044844Y045875D01*
X044844Y045250D02*
X044844Y044406D01*
X045000Y044250D01*
X052500Y044250D02*
X052656Y044406D01*
X052656Y045000D01*
X052656Y045750D01*
X053344Y045750D02*
X053344Y045000D01*
X053344Y044344D01*
X053250Y044250D01*
X072781Y025281D02*
X072875Y025375D01*
X072781Y025281D02*
X072781Y024750D01*
X072781Y024000D01*
X073469Y024000D02*
X073469Y023281D01*
X073500Y023250D01*
X073469Y024000D02*
X073469Y024750D01*
X072906Y014344D02*
X072500Y014344D01*
X071750Y014344D01*
X071750Y013656D02*
X072844Y013656D01*
X073000Y013500D01*
X073000Y012250D01*
X073500Y011750D01*
X073000Y011250D01*
X073000Y010250D01*
X072500Y009750D01*
X072024Y010226D01*
X071750Y010226D01*
X070250Y010226D02*
X070250Y009125D01*
X070250Y012274D02*
X070250Y012750D01*
X070250Y013656D01*
X069500Y013656D01*
X069500Y014344D02*
X070250Y014344D01*
X069094Y014344D01*
X069000Y014250D01*
X071750Y013656D02*
X072500Y013656D01*
X073000Y014250D02*
X072906Y014344D01*
X071750Y013000D02*
X071750Y012274D01*
D32*
X072000Y016750D02*
X072000Y017738D01*
X072000Y017750D01*
X072374Y017738D02*
X072375Y017737D01*
X072375Y016750D01*
X072374Y018762D02*
X072374Y019249D01*
X072500Y019375D01*
X072000Y019375D02*
X072000Y020250D01*
X072000Y019375D02*
X072000Y018762D01*
X071626Y018762D02*
X071626Y019249D01*
X071500Y019375D01*
X066000Y023750D02*
X065500Y024250D01*
X065500Y028750D01*
X065500Y033750D01*
X072500Y042406D02*
X073500Y042406D01*
X073500Y043094D02*
X072500Y043094D01*
X069250Y043750D02*
X069250Y045625D01*
X067165Y056750D02*
X067165Y057750D01*
X056500Y065406D02*
X056500Y065500D01*
X051500Y059250D02*
X051344Y059094D01*
X050500Y059094D01*
X049500Y059094D01*
X048656Y059094D01*
X048500Y059250D01*
X049500Y058406D02*
X050500Y058406D01*
X051344Y058406D01*
X051500Y058250D01*
X050500Y053165D02*
X050085Y053165D01*
X050000Y053250D01*
X045750Y057250D02*
X045469Y057250D01*
X045469Y058000D01*
X044781Y058000D02*
X044781Y057250D01*
X044750Y057281D01*
X044750Y058375D01*
X044625Y058500D01*
X041250Y061625D02*
X041063Y061438D01*
X039438Y061438D01*
X039250Y061250D01*
X039250Y060188D01*
X039250Y058250D01*
X038750Y057688D02*
X038313Y057250D01*
X037500Y057250D01*
X038750Y057688D02*
X038750Y061125D01*
X037835Y061125D01*
X037165Y061125D02*
X036500Y061125D01*
X036500Y060188D02*
X037165Y060188D01*
X037835Y060188D02*
X038313Y060188D01*
X038750Y061125D02*
X038750Y061563D01*
X038938Y061750D01*
X040750Y061750D01*
X040938Y061938D01*
X040938Y063313D01*
X040750Y063500D01*
X040024Y063500D01*
X040024Y063000D02*
X039375Y063000D01*
X039250Y063125D01*
X039250Y064063D01*
X039000Y064313D01*
X039375Y064313D02*
X039688Y064000D01*
X040024Y064000D01*
X041063Y064000D01*
X041250Y063813D01*
X041250Y061625D01*
X040844Y061000D02*
X040844Y060250D01*
X040156Y060250D02*
X040156Y061000D01*
X040156Y060250D02*
X040156Y059594D01*
X040500Y059250D01*
X039500Y062250D02*
X039000Y062750D01*
X039000Y063750D01*
X038750Y064000D01*
X037976Y064000D01*
X032250Y064000D01*
X032000Y064250D01*
X029188Y064250D01*
X026500Y064250D01*
X026000Y064750D01*
X026000Y065750D01*
X027000Y065750D02*
X027000Y064750D01*
X028000Y063750D02*
X031188Y063750D01*
X032000Y063750D01*
X032250Y063500D01*
X037976Y063500D01*
X038563Y063500D01*
X038688Y063375D01*
X038688Y062438D01*
X038500Y062250D01*
X037976Y062726D02*
X037500Y062250D01*
X037976Y062726D02*
X037976Y063000D01*
X039375Y064313D02*
X039375Y064750D01*
X039500Y064875D01*
X039500Y065250D01*
X040024Y064500D02*
X040313Y064500D01*
X040500Y064688D01*
X040500Y065250D01*
X043165Y064250D02*
X043188Y064228D01*
X043835Y064250D02*
X044188Y064250D01*
X044313Y064125D01*
X044313Y063250D01*
X027000Y059750D02*
X027000Y058250D01*
X023500Y059750D02*
X023500Y050250D01*
X024500Y050750D02*
X025165Y050750D01*
X025835Y050750D02*
X026500Y050750D01*
X026500Y049750D01*
X026500Y050750D02*
X026500Y051250D01*
X025250Y048000D02*
X025250Y047512D01*
X025250Y046488D02*
X025250Y046000D01*
X022500Y048750D02*
X022000Y049250D01*
X022000Y052250D01*
X022585Y052250D01*
X022750Y052415D01*
X022750Y053085D02*
X022750Y053500D01*
X009125Y059000D02*
X008500Y059000D01*
X008500Y059500D02*
X008524Y059500D01*
X009125Y059500D01*
X027844Y032750D02*
X027844Y032000D01*
X024656Y020844D02*
X023500Y020844D01*
X023500Y020156D02*
X023500Y019250D01*
X024750Y020750D02*
X024656Y020844D01*
X014000Y027750D02*
X014000Y028406D01*
X014000Y029094D02*
X014000Y029750D01*
X014000Y030156D01*
X014000Y030844D02*
X014000Y031500D01*
X010000Y027750D02*
X009875Y027625D01*
X009875Y027250D01*
X009781Y027156D01*
X009250Y027156D01*
X009250Y027844D02*
X009250Y028250D01*
X051500Y022750D02*
X052000Y022250D01*
X052500Y022250D01*
X051500Y022750D02*
X051500Y042250D01*
X051500Y045625D01*
D33*
X050250Y045000D02*
X050250Y025750D01*
X050000Y026000D02*
X050000Y047000D01*
X049750Y047250D02*
X049750Y026250D01*
X049500Y026500D02*
X049500Y047500D01*
X051000Y048750D02*
X051000Y027500D01*
X050750Y027250D02*
X050750Y049000D01*
X050500Y049250D02*
X050500Y049915D01*
X050500Y049250D02*
X050500Y027000D01*
X049250Y026750D02*
X049250Y045500D01*
X048750Y045750D02*
X048750Y034750D01*
X048750Y014750D01*
X049000Y014250D02*
X048750Y014000D01*
X048750Y009750D01*
X050250Y008250D01*
X050250Y007000D01*
X049750Y006500D01*
X049250Y007000D02*
X048750Y006500D01*
X048250Y007000D02*
X047750Y006500D01*
X047250Y007000D02*
X046750Y006500D01*
X047250Y007000D02*
X047250Y032250D01*
X047000Y032750D02*
X047000Y008500D01*
X046750Y008250D01*
X046750Y007500D01*
X047750Y007500D02*
X047750Y008250D01*
X047500Y008500D01*
X047500Y031750D01*
X047750Y031250D02*
X047750Y008750D01*
X048250Y008250D01*
X048250Y007000D01*
X048750Y007500D02*
X048750Y008250D01*
X048000Y009000D01*
X048000Y030750D01*
X048250Y030250D02*
X048250Y009250D01*
X049250Y008250D01*
X049250Y007000D01*
X049750Y007500D02*
X049750Y008250D01*
X048500Y009500D01*
X048500Y029750D01*
X046750Y027250D02*
X046750Y025125D01*
X046750Y027250D02*
X046000Y028000D01*
X046000Y033750D01*
X045500Y034250D02*
X045500Y045000D01*
X046000Y045250D02*
X046000Y043625D01*
X044250Y043000D02*
X044250Y026750D01*
X042750Y025250D01*
X042750Y023250D01*
X042750Y009250D01*
X041750Y008250D01*
X041750Y007500D01*
X042250Y007000D02*
X041750Y006500D01*
X041250Y007000D02*
X040750Y006500D01*
X040250Y007000D02*
X039750Y006500D01*
X040250Y007000D02*
X040250Y008250D01*
X040000Y008500D01*
X040000Y029500D01*
X039750Y029750D01*
X036000Y029750D01*
X035750Y030000D01*
X035750Y041750D01*
X035250Y042250D02*
X035250Y022250D01*
X034750Y021250D02*
X034750Y041250D01*
X035000Y040750D02*
X035000Y020750D01*
X033500Y020250D02*
X033500Y009500D01*
X034750Y008250D01*
X034750Y007500D01*
X035250Y007000D02*
X034750Y006500D01*
X035250Y007000D02*
X035250Y008250D01*
X033750Y009750D01*
X033750Y014750D01*
X033750Y019750D01*
X033750Y039750D01*
X033500Y040250D02*
X033500Y020250D01*
X033250Y021750D02*
X033250Y026000D01*
X031000Y028250D01*
X031000Y043750D01*
X033250Y041750D02*
X033250Y031750D01*
X032250Y032250D02*
X032250Y036750D01*
X032000Y037750D02*
X032000Y031250D01*
X033000Y030750D02*
X033000Y040750D01*
X032750Y039750D02*
X032750Y032750D01*
X032500Y033750D02*
X032500Y038750D01*
X034000Y038750D02*
X034000Y018750D01*
X034000Y010000D01*
X035750Y008250D01*
X035750Y007500D01*
X036250Y007000D02*
X035750Y006500D01*
X036250Y007000D02*
X036250Y008250D01*
X034250Y010250D01*
X034250Y015750D01*
X034250Y035750D01*
X034250Y036750D02*
X034250Y042750D01*
X035000Y042750D02*
X035000Y041750D01*
X035000Y042750D02*
X035500Y043250D01*
X035500Y051375D01*
X035750Y051625D01*
X035750Y052750D01*
X035625Y052875D01*
X035375Y052875D01*
X035374Y052874D01*
X034887Y052874D01*
X034887Y052500D02*
X035375Y052500D01*
X035374Y052126D02*
X035375Y052125D01*
X035374Y052126D02*
X034887Y052126D01*
X034750Y051989D01*
X034750Y043750D01*
X035500Y042750D02*
X036000Y043250D01*
X036000Y053750D01*
X035250Y054250D02*
X035250Y060750D01*
X035000Y060250D02*
X035000Y056250D01*
X035750Y056951D02*
X035750Y058375D01*
X034750Y058625D02*
X034750Y060000D01*
X033000Y061750D01*
X033000Y063000D01*
X034000Y063000D02*
X034000Y061250D01*
X035000Y060250D01*
X034750Y058625D02*
X034000Y057875D01*
X034000Y056250D01*
X034750Y057750D02*
X034750Y054750D01*
X033863Y052874D02*
X033376Y052874D01*
X033375Y052875D01*
X032500Y053750D01*
X032500Y052750D02*
X033124Y052126D01*
X033374Y052126D01*
X033375Y052125D01*
X033374Y052126D02*
X033863Y052126D01*
X033863Y052500D02*
X033375Y052500D01*
X030500Y049750D02*
X031000Y049250D01*
X031000Y047750D01*
X030500Y047500D02*
X030500Y048750D01*
X030000Y049250D02*
X029500Y049750D01*
X029000Y049250D02*
X028500Y049750D01*
X028000Y049250D02*
X027500Y049750D01*
X028000Y049250D02*
X028000Y046500D01*
X027500Y046250D02*
X027500Y048750D01*
X026500Y048750D02*
X026500Y046000D01*
X026000Y045750D02*
X026000Y049250D01*
X025500Y049750D01*
X025500Y048750D02*
X025500Y048375D01*
X025624Y048251D01*
X025624Y047999D01*
X025625Y048000D01*
X025624Y047999D02*
X025624Y047512D01*
X025624Y046488D02*
X025624Y046001D01*
X025624Y043874D01*
X025000Y043250D01*
X024500Y045750D02*
X024500Y048750D01*
X024000Y049250D02*
X023500Y049750D01*
X024000Y049250D02*
X024000Y045750D01*
X023500Y045750D02*
X023500Y048750D01*
X023000Y049250D02*
X022500Y049750D01*
X023000Y049250D02*
X023000Y047750D01*
X022000Y046750D01*
X022000Y038750D01*
X021000Y037750D01*
X021000Y021750D01*
X021000Y017750D01*
X020000Y016750D02*
X020000Y020750D01*
X019500Y019750D02*
X019500Y016250D01*
X018500Y015250D02*
X018500Y037250D01*
X018500Y044125D01*
X017500Y045125D01*
X017500Y055000D01*
X017750Y055250D01*
X021000Y055250D01*
X021500Y055750D01*
X020500Y054750D02*
X021000Y054250D01*
X021750Y054250D01*
X021500Y053750D02*
X021000Y053250D01*
X018000Y053250D01*
X017750Y053000D01*
X017750Y045250D01*
X019250Y043750D01*
X019250Y043000D01*
X019000Y042750D01*
X019500Y042250D02*
X019500Y043875D01*
X018000Y045375D01*
X018000Y052500D01*
X018250Y052750D01*
X020500Y052750D01*
X021000Y052250D02*
X021500Y052750D01*
X021000Y052250D02*
X018500Y052250D01*
X018250Y052000D01*
X018250Y045500D01*
X019750Y044000D01*
X019750Y041500D01*
X019000Y040750D01*
X020000Y040750D02*
X020000Y044125D01*
X018500Y045625D01*
X018500Y051000D01*
X018750Y051250D01*
X021000Y051250D01*
X021500Y051750D01*
X021500Y050750D02*
X021000Y050250D01*
X019250Y050250D01*
X019000Y050000D01*
X019000Y045875D01*
X021250Y043625D01*
X021250Y042000D01*
X020500Y041250D01*
X020000Y040750D02*
X020500Y040250D01*
X020500Y039250D02*
X021500Y040250D01*
X021500Y043750D01*
X019250Y046000D01*
X019250Y049500D01*
X019500Y049750D01*
X020500Y049750D01*
X021500Y048750D02*
X021500Y044125D01*
X021750Y043875D01*
X021750Y039500D01*
X020500Y038250D01*
X021500Y036750D02*
X021500Y033750D01*
X022250Y033250D02*
X022250Y008750D01*
X021750Y008250D01*
X021750Y007500D01*
X021250Y007000D02*
X020750Y006500D01*
X020250Y007000D02*
X019750Y006500D01*
X020250Y007000D02*
X020250Y008250D01*
X021500Y009500D01*
X021500Y028250D01*
X021250Y029250D02*
X021250Y009750D01*
X019750Y008250D01*
X019750Y007500D01*
X020750Y007500D02*
X020750Y008250D01*
X021750Y009250D01*
X021750Y027250D01*
X022000Y026250D02*
X022000Y009000D01*
X021250Y008250D01*
X021250Y007000D01*
X024750Y006500D02*
X025250Y007000D01*
X025250Y008250D01*
X026000Y009000D01*
X026000Y016250D01*
X026250Y015250D02*
X026250Y008750D01*
X025750Y008250D01*
X025750Y007500D01*
X026250Y007000D02*
X025750Y006500D01*
X026250Y007000D02*
X026250Y008250D01*
X026500Y008500D01*
X026500Y014250D01*
X026750Y013250D02*
X026750Y007500D01*
X027250Y007000D02*
X026750Y006500D01*
X027250Y007000D02*
X027250Y008250D01*
X027000Y008500D01*
X027000Y012250D01*
X027250Y011250D02*
X027250Y008750D01*
X027750Y008250D01*
X027750Y007500D01*
X028250Y007000D02*
X027750Y006500D01*
X028250Y007000D02*
X028250Y008250D01*
X027500Y009000D01*
X027500Y010250D01*
X028750Y011250D02*
X028750Y015250D01*
X029000Y015750D02*
X029000Y016750D01*
X029500Y017000D02*
X029500Y010750D01*
X030000Y010250D02*
X030000Y016250D01*
X028750Y016250D02*
X028750Y020750D01*
X029750Y020250D02*
X029750Y013750D01*
X029000Y014250D02*
X029000Y012250D01*
X029250Y012750D02*
X029250Y019250D01*
X028500Y018250D02*
X028500Y011750D01*
X030750Y010750D02*
X030750Y007500D01*
X030250Y007000D02*
X029750Y006500D01*
X030250Y007000D02*
X030250Y008250D01*
X030500Y008500D01*
X030500Y010250D01*
X030500Y026000D01*
X028750Y027750D01*
X028750Y036250D01*
X028500Y035750D02*
X028500Y027625D01*
X030250Y025875D01*
X030250Y009750D01*
X030250Y008750D01*
X029750Y008250D01*
X029750Y007500D01*
X030750Y006500D02*
X031250Y007000D01*
X031250Y008250D01*
X031000Y008500D01*
X031000Y011250D01*
X031000Y026250D01*
X029250Y028000D01*
X029250Y037250D01*
X030000Y038250D02*
X030000Y028375D01*
X032750Y025625D01*
X032750Y012250D01*
X032750Y007500D01*
X033250Y007000D02*
X032750Y006500D01*
X032250Y007000D02*
X031750Y006500D01*
X032250Y007000D02*
X032250Y008250D01*
X032500Y008500D01*
X032500Y012750D01*
X032500Y025500D01*
X029750Y028250D01*
X029750Y035250D01*
X029000Y034750D02*
X029000Y027875D01*
X030750Y026125D01*
X030750Y010750D01*
X032250Y011750D02*
X032250Y008750D01*
X031750Y008250D01*
X031750Y007500D01*
X033250Y007000D02*
X033250Y008250D01*
X033000Y008500D01*
X033000Y013750D01*
X033000Y025750D01*
X030250Y028500D01*
X030250Y034250D01*
X029500Y033750D02*
X029500Y028125D01*
X032250Y025375D01*
X032250Y011750D01*
X034500Y010500D02*
X036750Y008250D01*
X036750Y007500D01*
X037250Y007000D02*
X036750Y006500D01*
X037250Y007000D02*
X037250Y008250D01*
X034750Y010750D01*
X034750Y018250D01*
X034500Y017750D02*
X034500Y010500D01*
X037750Y008500D02*
X038000Y008750D01*
X038000Y018750D01*
X038250Y017000D02*
X038250Y007000D01*
X037750Y006500D01*
X037750Y007500D02*
X037750Y008500D01*
X039750Y007500D02*
X039750Y023375D01*
X039000Y024250D01*
X038750Y023750D02*
X038000Y023000D01*
X038000Y021750D01*
X037500Y021250D01*
X037000Y021000D02*
X037250Y020750D01*
X038000Y020750D01*
X038250Y021000D01*
X038250Y021500D01*
X039000Y022250D01*
X037500Y023250D02*
X037000Y022750D01*
X037000Y021000D01*
X034500Y017750D02*
X034500Y037750D01*
X037250Y040750D02*
X037000Y041000D01*
X037000Y042750D01*
X037500Y043250D01*
X038250Y043500D02*
X038500Y043750D01*
X038250Y043500D02*
X038250Y042000D01*
X037500Y041250D01*
X037250Y040750D02*
X038000Y040750D01*
X038500Y041250D01*
X038500Y041750D01*
X039000Y042250D01*
X042000Y043250D02*
X042250Y043500D01*
X042250Y046500D01*
X044000Y048250D01*
X044000Y055750D01*
X043500Y056250D01*
X044000Y056750D02*
X044000Y059250D01*
X043500Y059750D01*
X043500Y060438D01*
X043375Y060563D01*
X043125Y060563D01*
X043000Y060438D01*
X043000Y060085D01*
X043000Y059415D02*
X043000Y058250D01*
X043000Y054250D01*
X042750Y053750D02*
X042750Y057250D01*
X042500Y057000D02*
X042500Y047125D01*
X042000Y046625D01*
X042000Y043750D01*
X042000Y043250D02*
X042000Y036625D01*
X041750Y036375D01*
X041750Y034250D01*
X041750Y027625D01*
X040500Y026375D01*
X040500Y014250D01*
X040250Y013250D02*
X040250Y026500D01*
X041500Y027750D01*
X041500Y033250D01*
X041500Y046250D01*
X040000Y047750D01*
X040000Y053750D01*
X039750Y055250D02*
X039335Y055250D01*
X039250Y055750D02*
X039250Y057750D01*
X038750Y057125D02*
X038375Y056750D01*
X035951Y056750D01*
X035750Y056951D01*
X037500Y055250D02*
X038665Y055250D01*
X038000Y054250D02*
X038000Y046750D01*
X039500Y045250D01*
X039500Y033750D01*
X039750Y032750D02*
X039750Y045375D01*
X038250Y046875D01*
X038250Y053250D01*
X038500Y052750D02*
X038500Y047000D01*
X040000Y045500D01*
X040000Y032250D01*
X040250Y031750D02*
X040250Y045625D01*
X038750Y047125D01*
X038750Y052250D01*
X039000Y051750D02*
X039000Y047250D01*
X040500Y045750D01*
X040500Y031250D01*
X040750Y030750D02*
X040750Y045875D01*
X039250Y047375D01*
X039250Y051250D01*
X039500Y050750D02*
X039500Y047500D01*
X041000Y046000D01*
X041000Y030250D01*
X041250Y029750D02*
X041250Y046125D01*
X039750Y047625D01*
X039750Y050250D01*
X042250Y047250D02*
X042250Y055250D01*
X042500Y057000D02*
X042250Y057250D01*
X044000Y056750D02*
X044750Y056000D01*
X044750Y053750D01*
X044500Y054250D02*
X044500Y052750D01*
X044250Y055250D02*
X044250Y048125D01*
X042500Y046375D01*
X042500Y043250D01*
X042250Y043000D01*
X042250Y036375D01*
X042000Y036125D01*
X042000Y035250D01*
X042000Y027500D01*
X040750Y026250D01*
X040750Y015250D01*
X041000Y016250D02*
X041000Y026125D01*
X042500Y027625D01*
X042500Y036250D01*
X041750Y036750D02*
X041750Y046750D01*
X042250Y047250D01*
X043500Y044250D02*
X043500Y027125D01*
X042000Y025625D01*
X042000Y024250D01*
X043000Y025125D02*
X043000Y016750D01*
X043000Y009000D01*
X042250Y008250D01*
X042250Y007000D01*
X042750Y007500D02*
X042750Y008250D01*
X043500Y009000D01*
X043500Y023750D01*
X043250Y025000D02*
X043250Y014750D01*
X041250Y017250D02*
X041250Y026000D01*
X042750Y027500D01*
X042750Y037250D01*
X043000Y038250D02*
X043000Y027375D01*
X041500Y025875D01*
X041500Y018250D01*
X041750Y019250D02*
X041750Y025750D01*
X043250Y027250D01*
X043250Y039250D01*
X044000Y042250D02*
X044000Y026875D01*
X042500Y025375D01*
X042500Y022250D01*
X042500Y009500D01*
X041250Y008250D01*
X041250Y007000D01*
X040750Y007500D02*
X040750Y008250D01*
X042250Y009750D01*
X042250Y022750D01*
X042250Y025500D01*
X043750Y027000D01*
X043750Y042750D01*
X049000Y044250D02*
X049000Y024250D01*
X049250Y023625D02*
X049000Y023375D01*
X049000Y014250D01*
X055500Y014250D02*
X056000Y013750D01*
X057000Y013750D01*
X057000Y012750D02*
X056000Y012750D01*
X055500Y013250D01*
X058250Y014250D02*
X058250Y034250D01*
X058000Y033750D02*
X058000Y031750D01*
X058750Y032000D02*
X059000Y032250D01*
X059000Y038750D01*
X059500Y039750D02*
X059500Y033250D01*
X060500Y033000D02*
X060500Y040000D01*
X060250Y040250D01*
X059250Y040250D01*
X059000Y040500D01*
X059000Y046250D01*
X059250Y046000D02*
X059250Y040750D01*
X059500Y040500D01*
X060500Y040500D01*
X060750Y040250D01*
X060750Y033500D01*
X061250Y032250D02*
X061250Y021750D01*
X061500Y020250D02*
X061500Y029750D01*
X061750Y029250D02*
X061750Y016250D01*
X060750Y015250D01*
X060750Y010750D01*
X061125Y009750D02*
X061125Y014000D01*
X061500Y013250D02*
X061500Y008750D01*
X060000Y011750D02*
X059250Y012500D01*
X059250Y021750D01*
X059000Y022250D02*
X059000Y013750D01*
X058500Y014750D02*
X058500Y021250D01*
X059000Y022750D02*
X059000Y023625D01*
X058750Y023875D01*
X058750Y032000D01*
X058500Y030750D02*
X058500Y046500D01*
X059000Y047000D02*
X059000Y051000D01*
X060000Y052000D01*
X060000Y061750D01*
X061000Y062750D02*
X061500Y062250D01*
X061500Y050750D01*
X062250Y051750D02*
X062250Y036750D01*
X062250Y018750D01*
X063500Y019250D02*
X063500Y031750D01*
X063250Y032750D02*
X063250Y047750D01*
X063500Y047750D02*
X063500Y046000D01*
X064500Y046250D02*
X064500Y048750D01*
X064000Y049250D01*
X064000Y048250D02*
X063500Y047750D01*
X062750Y048750D02*
X062750Y033875D01*
X062750Y015750D01*
X063000Y014750D02*
X063000Y039750D01*
X063000Y050750D01*
X064750Y051750D02*
X064750Y038750D01*
X064750Y031250D01*
X066500Y030250D02*
X066500Y041500D01*
X066000Y042000D01*
X066000Y043250D01*
X066500Y043750D01*
X067000Y044250D02*
X066500Y044750D01*
X067000Y044250D02*
X067000Y043250D01*
X067500Y042750D01*
X067750Y042250D02*
X067750Y030500D01*
X068250Y030000D01*
X068250Y018750D01*
X069000Y019750D02*
X069000Y044000D01*
X068750Y044250D01*
X068000Y044250D02*
X067500Y043750D01*
X068000Y044250D02*
X068000Y045250D01*
X068000Y046500D02*
X068000Y047915D01*
X068000Y048585D02*
X068000Y049250D01*
X067000Y048585D02*
X067000Y050250D01*
X065500Y051000D02*
X065500Y048000D01*
X067000Y047915D02*
X067000Y047500D01*
X065250Y046500D02*
X065250Y050250D01*
X061500Y048750D02*
X061000Y049250D01*
X061500Y048750D02*
X061500Y042250D01*
X061250Y042500D02*
X061250Y039500D01*
X060250Y041000D02*
X060250Y057250D01*
X060250Y063750D01*
X059750Y063782D02*
X055750Y063782D01*
X055750Y063684D02*
X058911Y063684D01*
X058914Y063685D02*
X058754Y063619D01*
X058635Y063500D01*
X055750Y063500D01*
X055750Y064020D01*
X055848Y064118D01*
X055910Y064268D01*
X055910Y064432D01*
X055848Y064582D01*
X055750Y064680D01*
X055750Y065864D01*
X056177Y065864D01*
X056177Y065842D01*
X056242Y065778D01*
X056758Y065778D01*
X056823Y065842D01*
X056823Y066250D01*
X059750Y066250D01*
X059750Y063500D01*
X059365Y063500D01*
X059246Y063619D01*
X059086Y063685D01*
X058914Y063685D01*
X059089Y063684D02*
X059750Y063684D01*
X059750Y063585D02*
X059280Y063585D01*
X059750Y063881D02*
X055750Y063881D01*
X055750Y063979D02*
X056245Y063979D01*
X056264Y063965D02*
X056327Y063933D01*
X056395Y063911D01*
X056450Y063902D01*
X056450Y064300D01*
X056052Y064300D01*
X056061Y064245D01*
X056083Y064177D01*
X056115Y064114D01*
X056157Y064057D01*
X056207Y064007D01*
X056264Y063965D01*
X056142Y064078D02*
X055807Y064078D01*
X055872Y064176D02*
X056084Y064176D01*
X056056Y064275D02*
X055910Y064275D01*
X055910Y064373D02*
X056450Y064373D01*
X056450Y064400D02*
X056450Y064300D01*
X056550Y064300D01*
X056550Y064400D01*
X056450Y064400D01*
X056450Y064798D01*
X056395Y064789D01*
X056327Y064767D01*
X056264Y064735D01*
X056207Y064693D01*
X056157Y064643D01*
X056115Y064586D01*
X056083Y064523D01*
X056061Y064455D01*
X056052Y064400D01*
X056450Y064400D01*
X056450Y064472D02*
X056550Y064472D01*
X056550Y064400D02*
X056550Y064798D01*
X056605Y064789D01*
X056673Y064767D01*
X056736Y064735D01*
X056793Y064693D01*
X056843Y064643D01*
X056885Y064586D01*
X056917Y064523D01*
X056939Y064455D01*
X056948Y064400D01*
X056550Y064400D01*
X056550Y064373D02*
X059750Y064373D01*
X059750Y064275D02*
X056944Y064275D01*
X056948Y064300D02*
X056550Y064300D01*
X056550Y063902D01*
X056605Y063911D01*
X056673Y063933D01*
X056736Y063965D01*
X056793Y064007D01*
X056843Y064057D01*
X056885Y064114D01*
X056917Y064177D01*
X056939Y064245D01*
X056948Y064300D01*
X056916Y064176D02*
X059750Y064176D01*
X059750Y064078D02*
X056858Y064078D01*
X056755Y063979D02*
X059750Y063979D01*
X059750Y064472D02*
X056934Y064472D01*
X056893Y064570D02*
X059750Y064570D01*
X059750Y064669D02*
X056818Y064669D01*
X056672Y064767D02*
X059750Y064767D01*
X059750Y064866D02*
X055750Y064866D01*
X055750Y064964D02*
X059750Y064964D01*
X059750Y065063D02*
X056777Y065063D01*
X056770Y065059D02*
X056805Y065079D01*
X056833Y065107D01*
X056852Y065141D01*
X056863Y065179D01*
X056863Y065356D01*
X056550Y065356D01*
X056550Y065456D01*
X056450Y065456D01*
X056450Y065762D01*
X056268Y065762D01*
X056230Y065752D01*
X055750Y065752D01*
X055750Y065654D02*
X056143Y065654D01*
X056148Y065670D02*
X056137Y065632D01*
X056137Y065456D01*
X056450Y065456D01*
X056450Y065356D01*
X056137Y065356D01*
X056137Y065179D01*
X056148Y065141D01*
X056167Y065107D01*
X056195Y065079D01*
X056230Y065059D01*
X056268Y065049D01*
X056450Y065049D01*
X056450Y065356D01*
X056550Y065356D01*
X056550Y065049D01*
X056732Y065049D01*
X056770Y065059D01*
X056858Y065161D02*
X059750Y065161D01*
X059750Y065260D02*
X056863Y065260D01*
X056863Y065456D02*
X056863Y065632D01*
X056852Y065670D01*
X056833Y065704D01*
X056805Y065732D01*
X056770Y065752D01*
X059750Y065752D01*
X059750Y065654D02*
X056857Y065654D01*
X056863Y065555D02*
X059750Y065555D01*
X059750Y065457D02*
X056863Y065457D01*
X056863Y065456D02*
X056550Y065456D01*
X056550Y065762D01*
X056732Y065762D01*
X056770Y065752D01*
X056823Y065851D02*
X059750Y065851D01*
X059750Y065949D02*
X056823Y065949D01*
X056823Y066048D02*
X059750Y066048D01*
X059750Y066146D02*
X056823Y066146D01*
X056823Y066245D02*
X059750Y066245D01*
X059750Y065358D02*
X056550Y065358D01*
X056550Y065260D02*
X056450Y065260D01*
X056450Y065358D02*
X055750Y065358D01*
X055750Y065260D02*
X056137Y065260D01*
X056142Y065161D02*
X055750Y065161D01*
X055750Y065063D02*
X056223Y065063D01*
X056450Y065063D02*
X056550Y065063D01*
X056550Y065161D02*
X056450Y065161D01*
X056450Y065457D02*
X056550Y065457D01*
X056550Y065555D02*
X056450Y065555D01*
X056450Y065654D02*
X056550Y065654D01*
X056550Y065752D02*
X056450Y065752D01*
X056230Y065752D02*
X056195Y065732D01*
X056167Y065704D01*
X056148Y065670D01*
X056137Y065555D02*
X055750Y065555D01*
X055750Y065457D02*
X056137Y065457D01*
X056177Y065851D02*
X055750Y065851D01*
X055750Y064767D02*
X056328Y064767D01*
X056450Y064767D02*
X056550Y064767D01*
X056550Y064669D02*
X056450Y064669D01*
X056450Y064570D02*
X056550Y064570D01*
X056550Y064275D02*
X056450Y064275D01*
X056450Y064176D02*
X056550Y064176D01*
X056550Y064078D02*
X056450Y064078D01*
X056450Y063979D02*
X056550Y063979D01*
X056066Y064472D02*
X055893Y064472D01*
X055853Y064570D02*
X056107Y064570D01*
X056182Y064669D02*
X055761Y064669D01*
X055750Y063585D02*
X058720Y063585D01*
X060500Y064750D02*
X060500Y041500D01*
X060000Y041750D02*
X060000Y051250D01*
X060000Y049500D01*
X059500Y049750D02*
X059500Y047750D01*
X059250Y048000D02*
X059250Y050750D01*
X058750Y051125D02*
X059750Y052125D01*
X059750Y060750D01*
X059250Y060250D02*
X059250Y052375D01*
X058250Y051375D01*
X058250Y048250D01*
X058500Y047500D02*
X058500Y051250D01*
X059500Y052250D01*
X059500Y059750D01*
X063000Y058750D02*
X063000Y055000D01*
X063250Y056000D02*
X063250Y057750D01*
X065000Y057250D02*
X065000Y026250D01*
X064750Y026000D02*
X064750Y017750D01*
X064500Y018750D02*
X064500Y026250D01*
X064250Y026500D02*
X064250Y014000D01*
X064000Y013250D02*
X064000Y026750D01*
X063750Y027500D02*
X063750Y021750D01*
X063250Y020750D02*
X063250Y019750D01*
X063250Y020750D02*
X063250Y032750D01*
X062000Y031250D02*
X062000Y012750D01*
X065000Y013750D02*
X065000Y025750D01*
X066500Y024250D02*
X066500Y007500D01*
X066750Y007000D02*
X066750Y014500D01*
X067500Y015250D01*
X067750Y015750D02*
X067750Y029750D01*
X067250Y030250D01*
X067250Y041750D01*
X066750Y041500D02*
X066750Y030375D01*
X067500Y029625D01*
X067500Y017250D01*
X068000Y017750D02*
X068000Y022750D01*
X068750Y022750D02*
X068750Y015250D01*
X069500Y015250D02*
X069500Y036750D01*
X069500Y056000D01*
X069750Y054500D02*
X069750Y035750D01*
X069750Y015500D01*
X070750Y015250D02*
X070750Y013000D01*
X070750Y012274D01*
X071250Y012274D02*
X071250Y013000D01*
X071250Y015500D01*
X072374Y015376D02*
X072375Y015250D01*
X072375Y015000D01*
X072374Y015376D02*
X072374Y017738D01*
X072000Y017750D02*
X072000Y018000D01*
X072250Y018250D01*
X072750Y018250D01*
X073000Y018875D02*
X072500Y019375D01*
X073000Y018875D02*
X073000Y014750D01*
X071500Y016750D02*
X071626Y016876D01*
X071626Y017738D01*
X071750Y018250D02*
X071250Y018250D01*
X071750Y018250D02*
X072000Y018500D01*
X072000Y018762D01*
X071500Y019375D02*
X071250Y019625D01*
X071250Y020500D01*
X071251Y025624D01*
X071250Y025750D01*
X071250Y026000D01*
X071000Y027250D02*
X070500Y027750D01*
X071000Y027250D02*
X071000Y018750D01*
X070500Y018250D01*
X068500Y016750D02*
X068500Y012750D01*
X068000Y011250D02*
X068000Y014750D01*
X066000Y015750D02*
X065500Y015250D01*
X065500Y013250D01*
X066000Y012750D01*
X066000Y011750D02*
X065500Y011250D01*
X065500Y010250D01*
X066000Y009750D01*
X068000Y011250D02*
X068500Y010750D01*
X070750Y011250D02*
X070750Y010226D01*
X071250Y010226D02*
X071250Y010750D01*
X071500Y011000D01*
X072250Y011000D01*
X072500Y010750D01*
X072000Y011250D02*
X072500Y011750D01*
X072000Y011250D02*
X070750Y011250D01*
X071250Y010250D02*
X071274Y010250D01*
X071250Y010226D01*
X062500Y017750D02*
X062500Y034750D01*
X062500Y053750D01*
X062000Y054250D02*
X062000Y054750D01*
X062000Y054250D02*
X061750Y054000D01*
X061750Y035750D01*
X061750Y029250D01*
X062000Y031250D02*
X062000Y037750D01*
X062000Y052750D01*
X061000Y053250D02*
X061000Y054250D01*
X058000Y055250D02*
X058000Y053250D01*
X057000Y053250D02*
X057000Y055000D01*
X056000Y056250D02*
X056000Y053250D01*
X055000Y053250D02*
X055000Y056500D01*
X053250Y055750D02*
X053250Y050500D01*
X054500Y049250D01*
X054500Y007000D01*
X058750Y012750D02*
X058750Y023250D01*
X054750Y023750D02*
X054750Y035500D01*
X055000Y035750D01*
X057000Y035750D01*
X057250Y036250D02*
X057250Y038250D01*
X057250Y038750D02*
X057250Y050250D01*
X058000Y049500D02*
X058000Y041250D01*
X056750Y040750D02*
X056000Y040750D01*
X055500Y040250D01*
X053250Y042250D02*
X052750Y042750D01*
X051875Y042750D01*
X056000Y043750D02*
X056500Y043250D01*
X056000Y043750D02*
X056000Y045250D01*
X057750Y046750D02*
X057750Y037250D01*
X057500Y036750D02*
X057500Y030250D01*
X057750Y030750D02*
X057750Y034750D01*
X057000Y034750D02*
X056000Y034750D01*
X055500Y034250D01*
X056000Y033750D02*
X057000Y033750D01*
X056000Y033750D02*
X055500Y033250D01*
X056000Y032750D02*
X055500Y032250D01*
X056000Y031750D02*
X057000Y031750D01*
X057000Y032750D02*
X056000Y032750D01*
X056000Y031750D02*
X055500Y031250D01*
X056000Y030750D02*
X055500Y030250D01*
X056000Y030750D02*
X057000Y030750D01*
X053750Y034250D02*
X053750Y048500D01*
X055000Y049000D02*
X055665Y049000D01*
X056335Y049000D02*
X056335Y049415D01*
X056250Y049500D01*
X055000Y050750D02*
X055000Y052250D01*
X052500Y053250D02*
X052500Y050750D01*
X050500Y050585D02*
X050500Y051250D01*
X048000Y049500D02*
X048000Y060750D01*
X047000Y060750D02*
X047000Y056750D01*
X046500Y056250D01*
X046000Y056750D02*
X046000Y055750D01*
X046000Y056750D02*
X046000Y060750D01*
X047500Y056250D02*
X047500Y051250D01*
X050500Y053835D02*
X050500Y054250D01*
X052250Y056500D02*
X052250Y057250D01*
X058750Y051125D02*
X058750Y047250D01*
X059750Y048250D02*
X059750Y044250D01*
X061000Y043250D02*
X061000Y036250D01*
X063500Y039250D02*
X063500Y042750D01*
X068500Y041250D02*
X068500Y035250D01*
X068500Y033750D01*
X068000Y033750D02*
X068000Y030750D01*
X067500Y030375D02*
X067500Y035250D01*
X069250Y035750D02*
X069250Y031750D01*
X068500Y032750D02*
X068500Y021250D01*
X068750Y022750D02*
X068750Y041000D01*
X069250Y042000D02*
X069250Y039250D01*
X069250Y037750D02*
X069250Y037000D01*
X072500Y036250D02*
X072500Y030750D01*
X072750Y031250D02*
X072750Y035750D01*
X072250Y034750D02*
X072250Y033250D01*
X072250Y032750D02*
X072250Y028250D01*
X072000Y028750D02*
X072000Y032250D01*
X071750Y031750D02*
X071750Y029250D01*
X068000Y029875D02*
X067500Y030375D01*
X068000Y029875D02*
X068000Y024250D01*
X067250Y025250D02*
X067250Y029500D01*
X066500Y030250D01*
X070000Y024750D02*
X070000Y047750D01*
X071000Y048500D02*
X071000Y049750D01*
X070500Y050250D01*
X071500Y051250D02*
X071500Y048500D01*
X071750Y048750D02*
X071750Y052250D01*
X072250Y052250D02*
X072250Y054000D01*
X072000Y054250D02*
X072000Y051250D01*
X073500Y049250D02*
X072500Y048250D01*
X072500Y048085D01*
X072500Y047415D02*
X072500Y046000D01*
X071500Y046250D02*
X071500Y047415D01*
X071500Y048000D02*
X071000Y048500D01*
X071500Y048085D02*
X071500Y048000D01*
X073640Y055470D02*
X073640Y058030D01*
X073640Y059470D02*
X073640Y062030D01*
X066000Y057750D02*
X065500Y057750D01*
X065000Y057250D01*
X044500Y036250D02*
X044500Y026625D01*
X043000Y025125D01*
X043250Y025000D02*
X045500Y027250D01*
X045500Y034250D01*
X049250Y025125D02*
X049250Y023625D01*
X051750Y022000D02*
X052000Y021750D01*
X053500Y021750D01*
X053750Y022000D01*
X054250Y023500D02*
X054250Y025250D01*
X035500Y034750D02*
X035500Y014750D01*
X030000Y017250D02*
X030000Y022250D01*
X027500Y021250D02*
X027500Y015250D01*
X027000Y015750D02*
X027000Y018750D01*
X025750Y017250D02*
X025750Y009250D01*
X024750Y008250D01*
X024750Y007500D01*
X014500Y013250D02*
X014500Y044625D01*
X015750Y045875D01*
X015750Y061125D01*
X016000Y061375D01*
X021250Y061375D01*
X021500Y061125D01*
X021500Y060750D01*
X022000Y060250D02*
X022500Y059750D01*
X022000Y060250D02*
X022000Y061375D01*
X021750Y061625D01*
X015750Y061625D01*
X015500Y061375D01*
X015500Y046000D01*
X014250Y044750D01*
X014250Y036750D01*
X014000Y035750D02*
X014000Y044875D01*
X015250Y046125D01*
X015250Y061625D01*
X015500Y061875D01*
X023250Y061875D01*
X023500Y061625D01*
X023500Y060750D01*
X024000Y060250D02*
X024500Y059750D01*
X024000Y060250D02*
X024000Y061875D01*
X023750Y062125D01*
X015250Y062125D01*
X015000Y061875D01*
X015000Y046250D01*
X013750Y045000D01*
X013750Y034750D01*
X010750Y033750D02*
X010750Y046500D01*
X012000Y047750D01*
X012000Y063250D01*
X012250Y063000D02*
X012250Y047625D01*
X011000Y046375D01*
X011000Y026750D01*
X011250Y025750D02*
X011250Y046250D01*
X012500Y047500D01*
X012500Y062750D01*
X012750Y062500D02*
X012750Y047375D01*
X011500Y046125D01*
X011500Y022750D01*
X011750Y020750D02*
X011750Y046000D01*
X013000Y047250D01*
X013000Y062250D01*
X013250Y062000D02*
X013250Y047125D01*
X012000Y045875D01*
X012000Y019750D01*
X012250Y018750D02*
X012250Y045750D01*
X013500Y047000D01*
X013500Y061750D01*
X013750Y061500D02*
X013750Y046875D01*
X012500Y045625D01*
X012500Y017750D01*
X012750Y016750D02*
X012750Y045500D01*
X014000Y046750D01*
X014000Y062875D01*
X014250Y063125D01*
X026250Y063125D01*
X026500Y062875D01*
X026500Y060750D01*
X027000Y060250D02*
X027500Y059750D01*
X027000Y060250D02*
X027000Y061500D01*
X026000Y061250D02*
X026000Y062625D01*
X025750Y062875D01*
X014500Y062875D01*
X014250Y062625D01*
X014250Y046625D01*
X013000Y045375D01*
X013000Y015750D01*
X014750Y014250D02*
X014750Y044500D01*
X016000Y045750D01*
X016000Y059500D01*
X016250Y059750D01*
X020500Y059750D01*
X021000Y059250D02*
X021500Y059750D01*
X021000Y059250D02*
X016500Y059250D01*
X016250Y059000D01*
X016250Y045625D01*
X015000Y044375D01*
X015000Y026750D01*
X016000Y028750D02*
X015250Y029500D01*
X015250Y044250D01*
X016500Y045500D01*
X016500Y058500D01*
X016750Y058750D01*
X020500Y058750D01*
X020500Y057750D02*
X017000Y057750D01*
X016750Y057500D01*
X016750Y044750D01*
X017500Y044000D01*
X017500Y020750D01*
X017750Y019750D02*
X017750Y044125D01*
X017000Y044875D01*
X017000Y057000D01*
X017250Y057250D01*
X021000Y057250D01*
X021500Y057750D01*
X020500Y056750D02*
X017500Y056750D01*
X017250Y056500D01*
X017250Y045000D01*
X018000Y044250D01*
X018000Y018750D01*
X025500Y022750D02*
X025500Y023750D01*
X026000Y023750D02*
X026000Y022250D01*
X030500Y029750D02*
X030500Y039750D01*
X030750Y038750D02*
X030750Y030250D01*
X035500Y034750D02*
X035500Y042750D01*
X030000Y047250D02*
X030000Y049250D01*
X029500Y048750D02*
X029500Y047000D01*
X029000Y046750D02*
X029000Y049250D01*
X032000Y048000D02*
X032000Y059250D01*
X031500Y059750D01*
X031000Y060250D01*
X031000Y063000D01*
X030500Y062750D02*
X030500Y060750D01*
X030000Y060250D02*
X030500Y059750D01*
X030000Y060250D02*
X030000Y062500D01*
X029500Y062250D02*
X029500Y060750D01*
X028500Y060750D02*
X028500Y062000D01*
X028000Y061750D02*
X028000Y060250D01*
X028500Y059750D01*
X025500Y059750D02*
X025000Y060250D01*
X025000Y062375D01*
X024750Y062625D01*
X014750Y062625D01*
X014500Y062375D01*
X014500Y046500D01*
X013250Y045250D01*
X013250Y030250D01*
X013500Y030000D02*
X013500Y030750D01*
X013500Y031250D02*
X013500Y045125D01*
X014750Y046375D01*
X014750Y062125D01*
X015000Y062375D01*
X024250Y062375D01*
X024500Y062125D01*
X024500Y060750D01*
X024317Y054376D02*
X024317Y054067D01*
X024125Y053875D01*
X026125Y053875D02*
X026875Y053875D01*
X020500Y050750D02*
X019000Y050750D01*
X018750Y050500D01*
X018750Y045750D01*
X021000Y043500D01*
X021000Y042750D01*
X020500Y042250D01*
X019500Y042250D02*
X019000Y041750D01*
X024875Y046000D02*
X024876Y046001D01*
X024876Y046488D01*
X025624Y046001D02*
X025625Y046000D01*
X021250Y035750D02*
X021250Y032750D01*
X013500Y030000D02*
X013250Y029750D01*
X013250Y007979D01*
X012979Y007750D01*
X008500Y007750D01*
X010500Y043750D02*
X010500Y046625D01*
X011750Y047875D01*
X011750Y054750D01*
X007500Y059250D02*
X007500Y062250D01*
X007750Y062500D01*
X010250Y062500D01*
X010500Y062750D01*
X010500Y065250D01*
X010000Y065750D01*
X010000Y064750D02*
X010000Y063000D01*
X009750Y062750D01*
X007500Y062750D01*
X007250Y062500D01*
X007250Y059750D01*
X007000Y059500D01*
X006476Y059500D01*
X006476Y059000D02*
X007250Y059000D01*
X007500Y059250D01*
X031500Y060750D02*
X031500Y063250D01*
D34*
X015000Y064750D02*
X015000Y065750D01*
X015000Y066750D01*
X053500Y066750D01*
X071250Y066750D01*
X071250Y063500D01*
X074500Y063500D01*
X074500Y007500D01*
X071000Y007500D01*
X071000Y004125D01*
X061000Y004125D01*
X061000Y006250D01*
X061000Y005250D01*
X061000Y004125D02*
X054000Y004125D01*
X054000Y005750D01*
X051625Y005750D01*
X051625Y004125D01*
X044750Y004125D01*
X044750Y005500D01*
X044750Y006500D01*
X044750Y007500D01*
X044750Y004125D02*
X019000Y004125D01*
X019000Y005750D01*
X016500Y005750D01*
X016500Y004125D01*
X007500Y004125D01*
X007500Y007500D01*
X004250Y007500D01*
X004250Y008500D01*
X005750Y008500D01*
X005750Y011000D01*
X004250Y011000D01*
X004250Y011750D01*
X005500Y011750D01*
X005500Y012750D01*
X005500Y013750D01*
X005500Y014750D01*
X004250Y014750D01*
X004250Y043500D01*
X005750Y043500D01*
X005750Y046000D01*
X004250Y046000D01*
X004250Y063500D01*
X007750Y063500D01*
X007750Y066750D01*
X015000Y066750D01*
X047875Y044500D02*
X047875Y043579D01*
X047875Y040921D02*
X047875Y040000D01*
X054000Y058250D02*
X054171Y058421D01*
X054171Y059750D01*
X053951Y061750D02*
X054500Y061750D01*
X053951Y061750D02*
X053500Y062201D01*
X053500Y066750D01*
X054500Y064375D02*
X054500Y064350D01*
X054500Y063808D01*
X054500Y062942D02*
X055500Y062942D01*
X055500Y061750D01*
X056500Y061750D01*
X056829Y061421D01*
X056829Y059750D01*
X057500Y062250D02*
X056808Y062942D01*
X055500Y062942D01*
X057500Y062250D02*
X059000Y062250D01*
X062500Y062421D02*
X062500Y061500D01*
X062500Y065079D02*
X062500Y066000D01*
X026500Y029750D02*
X026500Y028579D01*
X026500Y025921D02*
X026500Y024250D01*
X015500Y009000D02*
X014579Y009000D01*
X011921Y009000D02*
X011000Y009000D01*
X063500Y008921D02*
X063500Y008000D01*
X063500Y011579D02*
X063500Y012500D01*
D35*
X070500Y029750D02*
X071000Y030250D01*
X071000Y040750D01*
X070500Y041250D01*
M02*
